<?xml version="1.0" encoding="utf-8"?>
<!-- Generator: Adobe Illustrator 19.0.0, SVG Export Plug-In . SVG Version: 6.00 Build 0)  -->
<svg version="1.1" id="Layer_1" xmlns="http://www.w3.org/2000/svg" xmlns:xlink="http://www.w3.org/1999/xlink" x="0px" y="0px"
	 viewBox="0 0 172.4 173.9" style="enable-background:new 0 0 172.4 173.9;" xml:space="preserve">
<style type="text/css">
	.st0{fill:#66CAD8;}
	.st1{fill:#58595B;}
	.st2{fill:#5A595C;}
	.st3{fill:#67CAD7;}
</style>
<g id="XMLID_75_">
	<path id="XMLID_50_" class="st0" d="M84.2,173.9c-2.9,0-5.7-0.1-8.6-0.4c-46.1-4.7-79.8-46-75.1-92.1c2.1-20.8,11.8-40,27.4-54
		C43.3,13.5,63.2,5.9,83.9,5.8l0,4c-19.7,0-38.7,7.3-53.4,20.5C15.7,43.7,6.4,62,4.4,81.8C0,125.7,32.1,165.1,76,169.5
		c21.3,2.1,42.1-4.1,58.7-17.6c16.6-13.5,26.9-32.7,29-53.9c0.6-6.3,0.5-12.7-0.3-19l4-0.5c0.9,6.6,1,13.3,0.3,20
		c-2.3,22.3-13.1,42.4-30.5,56.6C122,167.3,103.5,173.9,84.2,173.9z"/>
</g>
<g id="XMLID_74_">
	<path id="XMLID_59_" class="st1" d="M89.9,15.8c-4.3,0-7.9-3.5-7.9-7.9S85.6,0,89.9,0s7.9,3.5,7.9,7.9S94.3,15.8,89.9,15.8z
		 M89.9,4C87.8,4,86,5.7,86,7.9s1.7,3.9,3.9,3.9c2.1,0,3.9-1.7,3.9-3.9S92.1,4,89.9,4z"/>
</g>
<g id="XMLID_46_">
	<path id="XMLID_54_" class="st1" d="M164.5,80.9c-4.3,0-7.9-3.5-7.9-7.9s3.5-7.9,7.9-7.9c4.3,0,7.9,3.5,7.9,7.9
		S168.9,80.9,164.5,80.9z M164.5,69.1c-2.1,0-3.9,1.7-3.9,3.9s1.7,3.9,3.9,3.9c2.1,0,3.9-1.7,3.9-3.9S166.7,69.1,164.5,69.1z"/>
</g>
<path id="XMLID_43_" class="st2" d="M119.1,64.2h-14.4v-9.7c0-9.7-7.9-17.7-17.7-17.7c-9.7,0-17.7,7.9-17.7,17.7v9.7H54.9
	c-1.1,0-2,0.9-2,2v62.7c0,1.1,0.9,2,2,2h43.3c1.1,0,2-0.9,2-2s-0.9-2-2-2H56.9V68.2h12.4v10c0,1.1,0.9,2,2,2s2-0.9,2-2v-10h27.3v10
	c0,1.1,0.9,2,2,2s2-0.9,2-2v-10h12.4v33.1c0,1.1,0.9,2,2,2s2-0.9,2-2V66.2C121.1,65.1,120.2,64.2,119.1,64.2z M73.4,64.2v-9.7
	c0-7.5,6.1-13.7,13.7-13.7s13.7,6.1,13.7,13.7v9.7H73.4z"/>
<g id="XMLID_1969_">
	<path id="XMLID_15_" class="st3" d="M110.1,134.8c-10.5,0-19.1-8.6-19.1-19.1s8.6-19.1,19.1-19.1s19.1,8.6,19.1,19.1
		S120.6,134.8,110.1,134.8z M110.1,100.7c-8.3,0-15.1,6.8-15.1,15.1s6.8,15.1,15.1,15.1s15.1-6.8,15.1-15.1S118.4,100.7,110.1,100.7
		z"/>
</g>
<g id="XMLID_1968_">
	<path id="XMLID_1_" class="st3" d="M135.3,143c-0.5,0-1-0.2-1.4-0.6l-13.1-13.1c-0.8-0.8-0.8-2,0-2.8c0.8-0.8,2-0.8,2.8,0
		l13.1,13.1c0.8,0.8,0.8,2,0,2.8C136.3,142.8,135.8,143,135.3,143z"/>
</g>
</svg>
