<?xml version="1.0" encoding="utf-8"?>
<!-- Generator: Adobe Illustrator 19.0.0, SVG Export Plug-In . SVG Version: 6.00 Build 0)  -->
<svg version="1.1" id="Layer_1" xmlns="http://www.w3.org/2000/svg" xmlns:xlink="http://www.w3.org/1999/xlink" x="0px" y="0px"
	 viewBox="0 0 172.4 173.9" style="enable-background:new 0 0 172.4 173.9;" xml:space="preserve">
<style type="text/css">
	.st0{fill:#66CAD8;}
	.st1{fill:#58595B;}
</style>
<g id="XMLID_55_">
	<g id="XMLID_699_">
		<path id="XMLID_88_" class="st0" d="M84.1,173.9c-2.8,0-5.7-0.1-8.5-0.4c-46.1-4.7-79.8-46-75.1-92.1c2.1-20.8,11.8-40,27.4-54
			C43.3,13.5,63.2,5.9,83.9,5.8l0,4c-19.7,0-38.7,7.3-53.4,20.5C15.7,43.7,6.4,62,4.4,81.8C0,125.7,32.1,165.1,76,169.5
			c2.7,0.3,5.4,0.4,8.1,0.4c40.5,0,75.4-30.8,79.6-72c0.6-6.3,0.5-12.7-0.3-19l4-0.5c0.9,6.6,1,13.3,0.3,20
			C163.3,141.6,126.7,173.9,84.1,173.9z"/>
	</g>
	<g id="XMLID_637_">
		<path id="XMLID_85_" class="st1" d="M89.9,15.8c-4.3,0-7.9-3.5-7.9-7.9S85.6,0,89.9,0c4.3,0,7.9,3.5,7.9,7.9S94.3,15.8,89.9,15.8z
			 M89.9,4C87.8,4,86,5.7,86,7.9s1.7,3.9,3.9,3.9c2.1,0,3.9-1.7,3.9-3.9S92.1,4,89.9,4z"/>
	</g>
	<g id="XMLID_635_">
		<path id="XMLID_54_" class="st1" d="M164.5,80.9c-4.3,0-7.9-3.5-7.9-7.9s3.5-7.9,7.9-7.9s7.9,3.5,7.9,7.9S168.9,80.9,164.5,80.9z
			 M164.5,69.1c-2.1,0-3.9,1.7-3.9,3.9s1.7,3.9,3.9,3.9s3.9-1.7,3.9-3.9S166.7,69.1,164.5,69.1z"/>
	</g>
	<g id="XMLID_47_">
		<path id="XMLID_50_" class="st0" d="M118.7,57.3L91.4,36.2c-0.9-0.7-2.1-0.5-2.8,0.4L60.7,72.7c-0.7,0.9-0.5,2.1,0.4,2.8
			c0.4,0.3,0.8,0.4,1.2,0.4c0.6,0,1.2-0.3,1.6-0.8l26.7-34.5l24.1,18.6l-10.3,13.3c-0.7,0.9-0.5,2.1,0.4,2.8
			c0.9,0.7,2.1,0.5,2.8-0.4L119,60.1C119.7,59.2,119.5,58,118.7,57.3z"/>
		<path id="XMLID_48_" class="st0" d="M94.8,60.4c-4.9-3.8-12.1-2.9-15.9,2c-2.8,3.7-3.1,8.8-0.7,12.8c0.4,0.6,1,1,1.7,1
			c0.4,0,0.7-0.1,1-0.3c0.9-0.6,1.2-1.8,0.7-2.7c-1.6-2.6-1.4-5.9,0.5-8.3c2.5-3.2,7.1-3.8,10.3-1.3c2.9,2.2,3.7,6.2,1.9,9.4
			c-0.5,1-0.2,2.2,0.8,2.7c1,0.5,2.2,0.2,2.7-0.8C100.5,70.1,99.2,63.8,94.8,60.4z"/>
	</g>
	<g id="XMLID_1_">
		<path id="XMLID_43_" class="st1" d="M132.3,93h-5.4V74.2c0-1.1-0.9-2-2-2H46.5c-1.1,0-2,0.9-2,2v59.4c0,1.1,0.9,2,2,2h78.4
			c1.1,0,2-0.9,2-2v-17.9h5.4c1.1,0,2-0.9,2-2V95C134.3,93.9,133.5,93,132.3,93z M122.9,131.6H48.5V76.2h74.4V93H99.4
			c-1.1,0-2,0.9-2,2v18.7c0,1.1,0.9,2,2,2h23.5V131.6z M130.3,111.7h-29V97h29V111.7z"/>
		<path id="XMLID_15_" class="st1" d="M110.7,110.6c3.4,0,6.2-2.8,6.2-6.2s-2.8-6.2-6.2-6.2c-3.4,0-6.2,2.8-6.2,6.2
			S107.2,110.6,110.7,110.6z M110.7,102.1c1.2,0,2.2,1,2.2,2.2s-1,2.2-2.2,2.2s-2.2-1-2.2-2.2S109.4,102.1,110.7,102.1z"/>
	</g>
</g>
</svg>
