<?xml version="1.0" encoding="UTF-8" standalone="no"?>
<svg width="70px" height="22px" viewBox="0 0 70 22" version="1.1" xmlns="http://www.w3.org/2000/svg" xmlns:xlink="http://www.w3.org/1999/xlink">
    <!-- Generator: Sketch 3.8.3 (29802) - http://www.bohemiancoding.com/sketch -->
    <title>Visa</title>
    <desc>Created with Sketch.</desc>
    <defs></defs>
    <g id="Page-1" stroke="none" stroke-width="1" fill="none" fill-rule="evenodd">
        <g id="New-Landing" transform="translate(-359.000000, -2358.000000)" fill="#FFFFFF">
            <g id="Visa" transform="translate(359.000000, 2358.000000)">
                <polyline id="Fill-2" points="24.675 21.1463636 28.2135795 0.383806818 33.8728409 0.383806818 30.331875 21.1463636 24.675 21.1463636"></polyline>
                <path d="M50.8573864,0.894886364 C49.7361932,0.474090909 47.9794318,0.0230681818 45.7851705,0.0230681818 C40.1935227,0.0230681818 36.2540341,2.83897727 36.220625,6.87471591 C36.1892045,9.85806818 39.0329545,11.5225568 41.1794886,12.5156818 C43.3821023,13.5330682 44.1230682,14.1821591 44.1123295,15.0909659 C44.0984091,16.4826136 42.3531818,17.1185795 40.7264773,17.1185795 C38.4614205,17.1185795 37.2582955,16.8039773 35.3997159,16.0288068 L34.6702841,15.6986932 L33.8760227,20.3465341 C35.1980682,20.9260227 37.6425,21.4283523 40.18,21.4542045 C46.1292045,21.4542045 49.9907386,18.6705114 50.0348864,14.3607386 C50.0563636,11.9990341 48.5481818,10.2013068 45.2836364,8.71977273 C43.3053409,7.75926136 42.0938636,7.118125 42.1065909,6.14568182 C42.1065909,5.28261364 43.1319318,4.35988636 45.3476705,4.35988636 C47.1982955,4.33125 48.5386364,4.73454545 49.5830682,5.15534091 L50.0901705,5.39477273 L50.8573864,0.894886364" id="Fill-3"></path>
                <path d="M65.3692614,0.403693182 L60.99625,0.403693182 C59.6415909,0.403693182 58.6277841,0.773181818 58.0327841,2.12545455 L49.6280114,21.153125 L55.5708523,21.153125 C55.5708523,21.153125 56.5425,18.5945455 56.7624432,18.0329545 C57.4119318,18.0329545 63.1845455,18.0417045 64.0098295,18.0417045 C64.1792614,18.7683523 64.6986932,21.153125 64.6986932,21.153125 L69.9498864,21.153125 L65.3692614,0.403693182 M58.3911364,13.7860227 C58.8588636,12.5896591 60.6458523,7.98198864 60.6458523,7.98198864 C60.6120455,8.03727273 61.1103977,6.78005682 61.3959659,6.00051136 L61.7785795,7.79068182 C61.7785795,7.79068182 62.8623864,12.7467614 63.0886932,13.7860227 L58.3911364,13.7860227" id="Fill-4"></path>
                <path d="M19.9285227,0.398920455 L14.3877841,14.5576136 L13.7975568,11.6800568 C12.76625,8.36301136 9.55261364,4.76954545 5.95954545,2.970625 L11.0257955,21.1284659 L17.0135795,21.1217045 L25.9230682,0.398920455 L19.9285227,0.398920455" id="Fill-5"></path>
                <path d="M9.24795455,0.386193182 L0.1225,0.386193182 L0.0501136364,0.818125 C7.14994318,2.53670455 11.8475,6.68977273 13.7975568,11.6800568 L11.8132955,2.13897727 C11.4704545,0.824090909 10.4769318,0.431931818 9.24795455,0.386193182" id="Fill-6"></path>
            </g>
        </g>
    </g>
</svg>