<?xml version="1.0" encoding="UTF-8" standalone="no"?>
<svg width="75px" height="32px" viewBox="0 0 75 32" version="1.1" xmlns="http://www.w3.org/2000/svg" xmlns:xlink="http://www.w3.org/1999/xlink">
    <!-- Generator: Sketch 3.8.3 (29802) - http://www.bohemiancoding.com/sketch -->
    <title>Page 1</title>
    <desc>Created with Sketch.</desc>
    <defs>
        <polygon id="path-1" points="0 31.0840155 74.9474004 31.0840155 74.9474004 0 0 0"></polygon>
    </defs>
    <g id="Page-1" stroke="none" stroke-width="1" fill="none" fill-rule="evenodd">
        <g id="New-Landing" transform="translate(-894.000000, -2353.000000)">
            <g id="Page-1" transform="translate(894.000000, 2353.000000)">
                <mask id="mask-2" fill="white">
                    <use xlink:href="#path-1"></use>
                </mask>
                <g id="Clip-2"></g>
                <path d="M7.83185841,13.98224 C6.21686947,13.3848949 5.3318031,12.9202931 5.3318031,12.1902046 C5.3318031,11.5707909 5.84070796,11.216698 6.74784292,11.216698 C8.40713496,11.216698 10.1105642,11.8583462 11.2831858,12.4336228 L11.9469027,8.34064712 C11.0176991,7.89811394 9.11498894,7.16802544 6.48235619,7.16802544 C4.62394912,7.16802544 3.07516593,7.65486173 1.96908186,8.56183075 C0.818528761,9.51326881 0.221183628,10.8848396 0.221183628,12.5441316 C0.221183628,15.5530918 2.05752212,16.8362223 5.04424779,17.9202378 C6.96902655,18.6061892 7.61067478,19.0928595 7.61067478,19.8450166 C7.61067478,20.5751051 6.99109513,20.9955697 5.86277655,20.9955697 C4.46897124,20.9955697 2.1681969,20.3096184 0.663716814,19.4247179 L0,23.5618308 C1.28313053,24.2919192 3.67251106,25.0442423 6.15049779,25.0442423 C8.11941372,25.0442423 9.75663717,24.5796405 10.8628872,23.6945741 C12.1017146,22.7212334 12.7433628,21.283125 12.7433628,19.4247179 C12.7433628,16.349552 10.8628872,15.0662555 7.83185841,13.98224 L7.83185841,13.98224 Z M23.5481748,11.5707909 L24.2118916,7.49988385 L20.7079646,7.49988385 L20.7079646,2.55818031 L15.9969027,3.33340155 L15.3165929,7.49988385 L13.6596239,7.76868916 L13.0393805,11.5707909 L15.3097898,11.5707909 L15.3097898,19.5574613 C15.3097898,21.637052 15.8407633,23.0751604 16.9247788,23.9600608 C17.8319137,24.6901493 19.1371128,25.0442423 20.9734513,25.0442423 C22.3893252,25.0442423 23.2521571,24.8008241 23.8495022,24.6460122 L23.8495022,20.3318529 C23.5176438,20.4202931 22.7654867,20.5751051 22.2565819,20.5751051 C21.1725664,20.5751051 20.7079646,20.0220631 20.7079646,18.7610011 L20.7079646,11.5707909 L23.5481748,11.5707909 Z M34.0707412,7.26227323 C32.5221239,7.26227323 31.2831305,8.0751604 30.7964602,9.53533739 L30.4646018,7.49988385 L25.6637721,7.49988385 L25.6637721,24.7123838 L31.1503872,24.7123838 L31.1503872,13.5397069 C31.8363385,12.6991095 32.8096792,12.3949613 34.1371128,12.3949613 C34.4248341,12.3949613 34.734458,12.3949613 35.1106195,12.461333 L35.1106195,7.39501659 C34.734458,7.3064104 34.4025996,7.26227323 34.0707412,7.26227323 L34.0707412,7.26227323 Z M39.2035951,5.79645465 C40.7965155,5.79645465 42.079646,4.4910896 42.079646,2.89816925 C42.079646,1.28318031 40.7965155,-0.000116150442 39.2035951,-0.000116150442 C37.5884403,-0.000116150442 36.3053097,1.28318031 36.3053097,2.89816925 C36.3053097,4.4910896 37.5884403,5.79645465 39.2035951,5.79645465 L39.2035951,5.79645465 Z M36.4380531,24.7122179 L41.9469027,24.7122179 L41.9469027,7.49988385 L36.4380531,7.49988385 L36.4380531,24.7122179 Z M57.5580199,9.04866704 C56.5845133,7.78760509 55.2350111,7.16802544 53.5093473,7.16802544 C51.916427,7.16802544 50.5226217,7.83174226 49.2172566,9.22554757 L48.9297013,7.49988385 L44.1066372,7.49988385 L44.1066372,31.0840653 L49.5934181,30.1769303 L49.5934181,24.6460122 C50.4340155,24.9114989 51.2968473,25.0442423 52.0712389,25.0442423 C53.4429757,25.0442423 55.4341261,24.6901493 56.9827434,23.0087887 C58.4649889,21.3937998 59.2173119,18.8937445 59.2173119,15.597229 C59.2173119,12.676875 58.664104,10.4645409 57.5580199,9.04866704 L57.5580199,9.04866704 Z M53.0004425,19.6681361 C52.5579093,20.5087334 51.8721239,20.9512666 51.0756637,20.9512666 C50.5226217,20.9512666 50.0357854,20.8405918 49.5934181,20.6194082 L49.5934181,12.4336228 C50.5226217,11.4601162 51.363219,11.3494414 51.6730088,11.3494414 C53.0668142,11.3494414 53.7525996,12.8539215 53.7525996,15.796344 C53.7525996,17.4778706 53.5093473,18.7830697 53.0004425,19.6681361 L53.0004425,19.6681361 Z M74.9474004,15.9513219 C74.9474004,13.2078485 74.3500553,11.0398175 73.1774336,9.51326881 C71.9827434,7.96448562 70.190708,7.16802544 67.9120022,7.16802544 C63.24375,7.16802544 60.3456305,10.6193529 60.3456305,16.1504369 C60.3456305,19.2476715 61.1198562,21.5706803 62.6464049,23.0530918 C64.0181416,24.3805254 65.9872235,25.0442423 68.5314159,25.0442423 C70.8764934,25.0442423 73.0446903,24.4910343 74.416427,23.5840653 L73.8190819,19.822948 C72.4694137,20.5530365 70.8987279,20.9512666 69.1287611,20.9512666 C68.0668142,20.9512666 67.3367257,20.730083 66.8057522,20.2654812 C66.2304757,19.7786449 65.8986173,18.9821847 65.7881084,17.8538662 L74.8810288,17.8538662 C74.9030973,17.5883794 74.9474004,16.349552 74.9474004,15.9513219 L74.9474004,15.9513219 Z M65.7438053,14.4911449 C65.8986173,12.0353927 66.5623341,10.8848396 67.823396,10.8848396 C69.0623894,10.8848396 69.7040376,12.0574613 69.7924779,14.4911449 L65.7438053,14.4911449 Z" id="Fill-1" fill="#FFFFFF" mask="url(#mask-2)"></path>
            </g>
        </g>
    </g>
</svg>