<?xml version="1.0" encoding="utf-8"?>
<!-- Generator: Adobe Illustrator 19.0.0, SVG Export Plug-In . SVG Version: 6.00 Build 0)  -->
<svg version="1.1" id="Layer_1" xmlns="http://www.w3.org/2000/svg" xmlns:xlink="http://www.w3.org/1999/xlink" x="0px" y="0px"
	 viewBox="0 0 172.4 173.9" style="enable-background:new 0 0 172.4 173.9;" xml:space="preserve">
<style type="text/css">
	.st0{fill:#66CAD8;}
	.st1{fill:#58595B;}
</style>
<g id="XMLID_59_">
	<g id="XMLID_1490_">
		<path id="XMLID_58_" class="st0" d="M84.1,173.9c-2.8,0-5.7-0.1-8.5-0.4c-46.1-4.7-79.8-46-75.1-92.1c2.1-20.8,11.8-40,27.4-54
			C43.3,13.5,63.2,5.9,83.9,5.8l0,4c-19.7,0-38.7,7.3-53.4,20.5C15.7,43.7,6.4,62,4.4,81.8C0,125.7,32.1,165.1,76,169.5
			c2.7,0.3,5.4,0.4,8.1,0.4c40.5,0,75.4-30.8,79.6-72c0.6-6.3,0.5-12.7-0.3-19l4-0.5c0.9,6.6,1,13.3,0.3,20
			C163.3,141.6,126.7,173.9,84.1,173.9z"/>
	</g>
	<g id="XMLID_1489_">
		<path id="XMLID_55_" class="st1" d="M89.9,15.8c-4.3,0-7.9-3.5-7.9-7.9S85.6,0,89.9,0c4.3,0,7.9,3.5,7.9,7.9S94.3,15.8,89.9,15.8z
			 M89.9,4C87.8,4,86,5.7,86,7.9s1.7,3.9,3.9,3.9c2.1,0,3.9-1.7,3.9-3.9S92.1,4,89.9,4z"/>
	</g>
	<g id="XMLID_1488_">
		<path id="XMLID_48_" class="st1" d="M164.5,80.9c-4.3,0-7.9-3.5-7.9-7.9s3.5-7.9,7.9-7.9s7.9,3.5,7.9,7.9S168.9,80.9,164.5,80.9z
			 M164.5,69.1c-2.1,0-3.9,1.7-3.9,3.9s1.7,3.9,3.9,3.9s3.9-1.7,3.9-3.9S166.7,69.1,164.5,69.1z"/>
	</g>
	<g id="XMLID_45_">
		<path id="XMLID_50_" class="st1" d="M122.5,58.6H43.4c-3.5,0-6.4,2.9-6.4,6.4v49.8c0,3.5,2.9,6.4,6.4,6.4h58c1.1,0,2-0.9,2-2
			s-0.9-2-2-2h-58c-1.3,0-2.4-1.1-2.4-2.4V77.3h83.9v11.1c0,1.1,0.9,2,2,2c1.1,0,2-0.9,2-2V65C128.9,61.5,126,58.6,122.5,58.6z
			 M41,73.3V65c0-1.3,1.1-2.4,2.4-2.4h79.1c1.3,0,2.4,1.1,2.4,2.4v8.2H41z"/>
		<path id="XMLID_52_" class="st1" d="M76.4,94.3c0-1.1-0.9-2-2-2h-24c-1.1,0-2,0.9-2,2s0.9,2,2,2h24C75.5,96.3,76.4,95.4,76.4,94.3
			z"/>
		<path id="XMLID_53_" class="st1" d="M50.4,102.5c-1.1,0-2,0.9-2,2s0.9,2,2,2h11.7c1.1,0,2-0.9,2-2s-0.9-2-2-2H50.4z"/>
	</g>
	<g id="XMLID_16_">
		<path id="XMLID_40_" class="st0" d="M117.6,132.2c-0.3,0-0.5-0.1-0.8-0.2c-14.9-6.2-21.6-20.3-21.6-31.5V88.3c0-1.1,0.9-2,2-2H138
			c1.1,0,2,0.9,2,2v12.3c0,11.3-6.7,25.4-21.7,31.5C118.1,132.2,117.8,132.2,117.6,132.2z M99.2,90.3v10.3c0,7.2,3.9,21.1,18.4,27.5
			c14.5-6.4,18.4-20.2,18.4-27.5V90.3H99.2z"/>
	</g>
	<g id="XMLID_1_">
		<path id="XMLID_15_" class="st0" d="M117.2,114.8c-0.5,0-1-0.2-1.4-0.6l-7.1-7.1c-0.8-0.8-0.8-2,0-2.8c0.8-0.8,2-0.8,2.8,0
			l5.6,5.6l11.1-11.1c0.8-0.8,2-0.8,2.8,0c0.8,0.8,0.8,2,0,2.8l-12.5,12.5C118.2,114.6,117.7,114.8,117.2,114.8z"/>
	</g>
</g>
</svg>
