<?xml version="1.0" encoding="UTF-8" standalone="no"?>
<svg width="62px" height="41px" viewBox="0 0 62 41" version="1.1" xmlns="http://www.w3.org/2000/svg" xmlns:xlink="http://www.w3.org/1999/xlink">
    <!-- Generator: Sketch 3.8.3 (29802) - http://www.bohemiancoding.com/sketch -->
    <title>Page 1</title>
    <desc>Created with Sketch.</desc>
    <defs>
        <polygon id="path-1" points="59.957095 38.5473855 59.957095 0.197430168 0 0.197430168 0 38.547486 59.957095 38.547486 3.35195531e-05 38.5473855 3.35195531e-05 0.197329609 59.9571285 0.197329609 59.9571285 38.5473855"></polygon>
        <polygon id="path-3" points="0 38.6852514 59.957095 38.6852514 59.957095 0.335195531 0 0.335195531"></polygon>
    </defs>
    <g id="Page-1" stroke="none" stroke-width="1" fill="none" fill-rule="evenodd">
        <g id="New-Landing" transform="translate(-768.000000, -2348.000000)">
            <g id="Page-1" transform="translate(769.000000, 2349.000000)">
                <path d="M59.865486,21.9736089 C59.865486,21.9736089 43.5987821,33.4520447 13.8062682,38.5892514 L59.865486,38.5892514 L59.865486,21.9736089 L59.865486,21.9736089 Z" id="Fill-1" fill="#FFFFFF"></path>
                <g id="Group-5" transform="translate(0.000000, 0.137765)">
                    <mask id="mask-2" fill="white">
                        <use xlink:href="#path-1"></use>
                    </mask>
                    <g id="Clip-4"></g>
                    <path d="M59.5240559,0.632078212 L59.5240559,38.1123017 L0.433106145,38.1123017 C0.433106145,37.6872737 0.430759777,1.0607933 0.430759777,0.633418994 C0.86249162,0.633418994 59.0899777,0.632078212 59.5240559,0.632078212 L59.5240559,0.632078212 Z M59.7405922,0.197329609 L3.35195546e-05,0.203363128 L3.35195546e-05,38.5473855 L59.9571285,38.5473855 L59.9534413,0.197329609 L59.7405922,0.197329609 Z" id="Fill-3" fill="#010201" mask="url(#mask-2)"></path>
                </g>
                <path d="M7.21981006,18.5875978 C6.68818994,19.067933 5.99735196,19.2774302 4.90394413,19.2774302 L4.44975419,19.2774302 L4.44975419,13.5398883 L4.90394413,13.5398883 C5.99735196,13.5398883 6.66103911,13.7356425 7.21981006,14.2417877 C7.80506145,14.7626816 8.15701676,15.5705028 8.15701676,16.4014525 C8.15701676,17.2344134 7.80506145,18.0667039 7.21981006,18.5875978 M5.24282682,12.0700559 L2.75869274,12.0700559 L2.75869274,20.7459218 L5.22975419,20.7459218 C6.54372067,20.7459218 7.49265922,20.4362011 8.32528492,19.7443575 C9.31511732,18.9254749 9.90036872,17.6909497 9.90036872,16.4141899 C9.90036872,13.8536313 7.98740782,12.0700559 5.24282682,12.0700559" id="Fill-6" fill="#FFFFFF"></path>
                <mask id="mask-4" fill="white">
                    <use xlink:href="#path-3"></use>
                </mask>
                <use id="Clip-9" stroke="#FFFFFF" xlink:href="#path-3"></use>
                <polygon id="Fill-8" fill="#FFFFFF" mask="url(#mask-4)" points="10.6789944 20.7459218 12.3713966 20.7459218 12.3713966 12.0697207 10.6789944 12.0697207"></polygon>
                <path d="M16.5095196,15.3993184 C15.4938771,15.0235642 15.1958883,14.7758547 15.1958883,14.3069162 C15.1958883,13.7605475 15.7271732,13.3452402 16.4565587,13.3452402 C16.9633743,13.3452402 17.3803575,13.5537318 17.8211397,14.0478101 L18.7067263,12.8883687 C17.9790168,12.2518324 17.108514,11.9266927 16.1572291,11.9266927 C14.6220335,11.9266927 13.4511955,12.9926145 13.4511955,14.4125028 C13.4511955,15.6078101 13.9965587,16.2198771 15.5857207,16.7917207 C16.2484022,17.0256872 16.5856089,17.1812179 16.7555531,17.2857989 C17.0937654,17.5066927 17.2630391,17.8194302 17.2630391,18.1837877 C17.2630391,18.8866927 16.7042682,19.4072514 15.9490726,19.4072514 C15.1419218,19.4072514 14.4916425,19.003676 14.1021453,18.2501564 L13.0087374,19.3030056 C13.7884022,20.4476983 14.7249385,20.9548492 16.0127598,20.9548492 C17.7711955,20.9548492 19.0050503,19.785352 19.0050503,18.1060223 C19.0050503,16.7273631 18.4345475,16.1035642 16.5095196,15.3993184" id="Fill-10" fill="#FFFFFF" mask="url(#mask-4)"></path>
                <path d="M19.5388827,16.4140559 C19.5388827,18.9642235 21.5413408,20.9415419 24.118324,20.9415419 C24.8467039,20.9415419 25.470838,20.7984134 26.2401117,20.436067 L26.2401117,18.444 C25.5636872,19.121095 24.9643575,19.3942793 24.197095,19.3942793 C22.4926257,19.3942793 21.282905,18.1584134 21.282905,16.4013184 C21.282905,14.7357318 22.530838,13.4217654 24.118324,13.4217654 C24.9254749,13.4217654 25.5365363,13.7096983 26.2401117,14.3978547 L26.2401117,12.4067933 C25.4973184,12.0300335 24.8865922,11.8738324 24.1582123,11.8738324 C21.5943017,11.8738324 19.5388827,13.8913743 19.5388827,16.4140559" id="Fill-11" fill="#FFFFFF" mask="url(#mask-4)"></path>
                <polygon id="Fill-12" fill="#FFFFFF" mask="url(#mask-4)" points="39.6584916 17.8977318 37.3449721 12.0700223 35.4960335 12.0700223 39.1778212 20.9687933 40.0885475 20.9687933 43.8367039 12.0700223 42.0021788 12.0700223"></polygon>
                <polygon id="Fill-13" fill="#FFFFFF" mask="url(#mask-4)" points="44.6019553 20.7460559 49.4012849 20.7460559 49.4012849 19.2772291 46.2930168 19.2772291 46.2930168 16.9352179 49.2869832 16.9352179 49.2869832 15.4657207 46.2930168 15.4657207 46.2930168 13.5400223 49.4012849 13.5400223 49.4012849 12.0698547 44.6019553 12.0698547"></polygon>
                <path d="M52.7068827,16.0643128 L52.2124693,16.0643128 L52.2124693,13.4367151 L52.7336983,13.4367151 C53.7878883,13.4367151 54.3607374,13.8781676 54.3607374,14.7225251 C54.3607374,15.5947039 53.7878883,16.0643128 52.7068827,16.0643128 M56.1020782,14.631352 C56.1020782,13.0069944 54.9831955,12.0697877 53.0316872,12.0697877 L50.5220782,12.0697877 L50.5220782,20.7459888 L52.2124693,20.7459888 L52.2124693,17.2606257 L52.4333631,17.2606257 L54.7757095,20.7459888 L56.8569385,20.7459888 L54.1254302,17.0910168 C55.4001788,16.8315754 56.1020782,15.9597318 56.1020782,14.631352" id="Fill-14" fill="#FFFFFF" mask="url(#mask-4)"></path>
                <path d="M36.0236983,16.4379553 C36.0236983,18.9871173 33.9572179,21.0535978 31.4080559,21.0535978 C28.8588939,21.0535978 26.7927486,18.9871173 26.7927486,16.4379553 C26.7927486,13.8887933 28.8588939,11.822648 31.4080559,11.822648 C33.9572179,11.822648 36.0236983,13.8887933 36.0236983,16.4379553" id="Fill-16" fill="#FFFFFF" mask="url(#mask-4)"></path>
                <path d="M56.9753966,12.4632402 L56.9445587,12.4632402 L56.9445587,12.2637989 L56.9774078,12.2637989 C57.0672402,12.2637989 57.1141676,12.2963128 57.1141676,12.3620112 C57.1141676,12.4293855 57.0665698,12.4632402 56.9753966,12.4632402 M57.2961788,12.3589944 C57.2961788,12.2071508 57.1915978,12.1240223 57.0075754,12.1240223 L56.7625475,12.1240223 L56.7625475,12.8865922 L56.9445587,12.8865922 L56.9445587,12.5906145 L57.1580782,12.8865922 L57.3803128,12.8865922 L57.1295866,12.5721788 C57.2368492,12.5430168 57.2961788,12.4649162 57.2961788,12.3589944" id="Fill-1229" fill="#FFFFFF" mask="url(#mask-4)"></path>
                <path d="M57.0414972,13.0498324 C56.7502123,13.0498324 56.5118883,12.8071508 56.5118883,12.5048045 C56.5118883,12.2011173 56.7471955,11.9587709 57.0414972,11.9587709 C57.3314413,11.9587709 57.5677542,12.2064804 57.5677542,12.5048045 C57.5677542,12.8048045 57.3314413,13.0498324 57.0414972,13.0498324 M57.0441788,11.8391061 C56.6737877,11.8391061 56.3798212,12.1344134 56.3798212,12.5037989 C56.3798212,12.8728492 56.6771397,13.1688268 57.0441788,13.1688268 C57.4048492,13.1688268 57.7004916,12.8694972 57.7004916,12.5037989 C57.7004916,12.1397765 57.4048492,11.8391061 57.0441788,11.8391061" id="Fill-1230" fill="#010201" mask="url(#mask-4)"></path>
            </g>
        </g>
    </g>
</svg>