<?xml version="1.0" encoding="utf-8"?>
<!-- Generator: Adobe Illustrator 19.0.0, SVG Export Plug-In . SVG Version: 6.00 Build 0)  -->
<svg version="1.1" id="Layer_1" xmlns="http://www.w3.org/2000/svg" xmlns:xlink="http://www.w3.org/1999/xlink" x="0px" y="0px"
	 viewBox="0 0 172.4 173.9" style="enable-background:new 0 0 172.4 173.9;" xml:space="preserve">
<style type="text/css">
	.st0{fill:#66CAD8;}
	.st1{fill:#58595B;}
</style>
<g id="XMLID_45_">
	<path id="XMLID_121_" class="st0" d="M84.1,173.9c-2.8,0-5.7-0.1-8.5-0.4c-22.3-2.3-42.4-13.1-56.6-30.5
		C4.8,125.6-1.8,103.8,0.4,81.4c2.1-20.8,11.8-40,27.4-54C43.3,13.5,63.2,5.9,83.9,5.8l0,4c-19.7,0-38.7,7.3-53.4,20.5
		C15.7,43.7,6.4,62,4.4,81.8c-2.2,21.3,4.1,42.1,17.6,58.7c13.5,16.6,32.7,26.9,53.9,29c2.7,0.3,5.4,0.4,8.1,0.4
		c40.5,0,75.4-30.8,79.6-72c0.6-6.3,0.5-12.7-0.3-19l4-0.5c0.9,6.6,1,13.3,0.3,20C163.3,141.6,126.7,173.9,84.1,173.9z"/>
</g>
<g id="XMLID_44_">
	<path id="XMLID_118_" class="st1" d="M89.9,15.8c-4.3,0-7.9-3.5-7.9-7.9C82,3.5,85.6,0,89.9,0s7.9,3.5,7.9,7.9
		C97.8,12.2,94.3,15.8,89.9,15.8z M89.9,4C87.8,4,86,5.7,86,7.9c0,2.1,1.7,3.9,3.9,3.9s3.9-1.7,3.9-3.9C93.8,5.7,92.1,4,89.9,4z"/>
</g>
<g id="XMLID_43_">
	<path id="XMLID_115_" class="st1" d="M164.5,80.9c-4.3,0-7.9-3.5-7.9-7.9c0-4.3,3.5-7.9,7.9-7.9c4.3,0,7.9,3.5,7.9,7.9
		C172.4,77.4,168.9,80.9,164.5,80.9z M164.5,69.1c-2.1,0-3.9,1.7-3.9,3.9c0,2.1,1.7,3.9,3.9,3.9c2.1,0,3.9-1.7,3.9-3.9
		C168.4,70.9,166.7,69.1,164.5,69.1z"/>
</g>
<g id="XMLID_15_">
	<path id="XMLID_16_" class="st1" d="M52.2,81.8c-1.1,0-2,0.9-2,2s0.9,2,2,2h6.4c1.1,0,2-0.9,2-2s-0.9-2-2-2H52.2z"/>
	<path id="XMLID_112_" class="st1" d="M131.8,54.6H36.2c-1.1,0-2,0.9-2,2v57.4c0,1.1,0.9,2,2,2H84c1.1,0,2-0.9,2-2s-0.9-2-2-2H54.1
		C53.9,103,47,95.7,38.2,94.7V74.4c8.3-0.9,14.9-7.5,15.8-15.8h60c0.9,8.3,7.5,14.9,15.8,15.8v20.3c-5.2,0.6-9.9,3.4-12.9,7.8
		c-0.6,0.9-0.4,2.2,0.5,2.8c0.3,0.2,0.7,0.3,1.1,0.3c0.6,0,1.3-0.3,1.7-0.9c2.2-3.3,5.7-5.4,9.6-6v13.2h-4.6c-1.1,0-2,0.9-2,2
		s0.9,2,2,2h6.6c1.1,0,2-0.9,2-2V56.6C133.8,55.5,132.9,54.6,131.8,54.6z M50.1,111.9H38.2V98.7C44.8,99.7,49.9,105.2,50.1,111.9z
		 M38.2,70.3V58.6H50C49.1,64.7,44.3,69.5,38.2,70.3z M118.1,58.6h11.8v11.8C123.8,69.5,118.9,64.7,118.1,58.6z"/>
	<path id="XMLID_125_" class="st1" d="M84,70.5c-8.1,0-14.7,6.6-14.7,14.7S75.9,100,84,100s14.7-6.6,14.7-14.7S92.2,70.5,84,70.5z
		 M84,96c-5.9,0-10.7-4.8-10.7-10.7S78.1,74.5,84,74.5c5.9,0,10.7,4.8,10.7,10.7S90,96,84,96z"/>
	<path id="XMLID_137_" class="st1" d="M117.9,85.3c0-1.1-0.9-2-2-2h-6.4c-1.1,0-2,0.9-2,2s0.9,2,2,2h6.4
		C117,87.3,117.9,86.4,117.9,85.3z"/>
</g>
<path id="XMLID_46_" class="st0" d="M104.7,101.9c-10.2,0-21.1,2.6-21.1,8.4v25.5c0,5.8,10.9,8.4,21.1,8.4s21.1-2.6,21.1-8.4v-25.5
	C125.9,104.5,114.9,101.9,104.7,101.9z M121.9,123c0,1.3-6,4.4-17.1,4.4s-17.1-3.1-17.1-4.4v-7.6c4.1,2.2,10.8,3.2,17.1,3.2
	s13-1,17.1-3.2V123z M104.7,105.9c11.1,0,17.1,3.1,17.1,4.4c0,1.3-6,4.4-17.1,4.4s-17.1-3.1-17.1-4.4
	C87.6,109,93.6,105.9,104.7,105.9z M104.7,140.1c-11.1,0-17.1-3.1-17.1-4.4v-7.6c4.1,2.2,10.8,3.2,17.1,3.2s13-1,17.1-3.2v7.6
	C121.9,137,115.9,140.1,104.7,140.1z"/>
</svg>
