<?xml version="1.0" encoding="UTF-8" standalone="no"?>
<svg width="82px" height="24px" viewBox="0 0 82 24" version="1.1" xmlns="http://www.w3.org/2000/svg" xmlns:xlink="http://www.w3.org/1999/xlink">
    <!-- Generator: Sketch 3.8.3 (29802) - http://www.bohemiancoding.com/sketch -->
    <title>Page 1</title>
    <desc>Created with Sketch.</desc>
    <defs>
        <polygon id="path-1" points="0.237854052 19.4402473 15.989183 19.4402473 15.989183 0.364846154 0.237854052 0.364846154 0.237854052 19.4402473"></polygon>
        <polygon id="path-3" points="2.2343149 0.182843407 0.415863668 0.182843407 0.415863668 2.47752816 2.2343149 2.47752816 2.2343149 0.182843407"></polygon>
    </defs>
    <g id="Page-1" stroke="none" stroke-width="1" fill="none" fill-rule="evenodd">
        <g id="New-Landing" transform="translate(-619.000000, -2357.000000)">
            <g id="Page-1" transform="translate(619.000000, 2357.000000)">
                <path d="M67.6113935,13.2948698 C67.360772,14.4907078 66.4087253,15.0119166 65.2554457,15.0639323 C64.2524341,15.1154227 63.3492507,14.2306288 64.0012871,13.1908383 C64.503581,12.3065697 65.9074821,12.0985065 66.7597005,12.0985065 L67.8630659,12.0985065 C67.7621868,12.5146329 67.7106964,12.8792689 67.6113935,13.2948698 M67.3108578,4.13956422 C65.1545666,4.13956422 63.4501298,4.71173798 62.1465824,4.97234238 L61.7446422,8.24881216 C62.3966786,7.93671738 64.4520907,7.36506902 66.1575783,7.31252782 C67.8630659,7.26051202 68.8655522,7.6246226 68.5151023,9.0810649 C63.4501298,9.0810649 60.0396799,10.1213808 59.3377294,13.3989014 C58.3341923,19.0171329 64.503581,18.8610855 66.960408,16.4158177 L66.6593468,17.7687538 L71.1721113,17.7687538 L73.1287459,8.82098592 C73.9299993,5.02330735 70.4696353,4.08807383 67.3108578,4.13956422" id="Fill-1" fill="#FFFFFF"></path>
                <polygon id="Fill-3" fill="#FFFFFF" points="76.9893163 0.601334135 73.2552126 17.7686487 77.8399584 17.7686487 81.6202984 0.601334135"></polygon>
                <path d="M55.7763286,6.48016999 C55.4742167,7.78109032 54.1669914,8.82140625 52.9102057,8.82140625 L50.6488321,8.82140625 L51.6544708,4.13945913 L54.0671631,4.13945913 C55.3239488,4.13945913 56.0773898,5.17977507 55.7763286,6.48016999 M55.9260711,0.654400755 L47.5331384,0.654400755 L43.8132208,17.7686487 L48.6885196,17.7686487 L49.9453053,12.0984014 L53.4135505,12.0984014 C56.8308307,12.0984014 59.6454633,10.0177696 60.399955,6.48016999 C61.2537497,2.47495364 58.3387634,0.654400755 55.9260711,0.654400755" id="Fill-5" fill="#FFFFFF"></path>
                <path d="M23.7020749,13.2948698 C23.4546058,14.4907078 22.4636786,15.0119166 21.3245852,15.0639323 C20.333658,15.1154227 19.4914224,14.2306288 20.1355776,13.1908383 C20.6305158,12.3065697 22.0176037,12.0985065 22.8104505,12.0985065 L23.9500694,12.0985065 C23.8507665,12.5146329 23.751989,12.8792689 23.7020749,13.2948698 M23.3558283,4.13956422 C21.2258077,4.13956422 19.5408111,4.71173798 18.3024148,4.97234238 L17.9062541,8.24881216 C18.5004952,7.93671738 20.5322637,7.36506902 22.2156841,7.31252782 C23.9006806,7.26051202 24.8916078,7.6246226 24.5936992,9.0810649 C19.5907253,9.0810649 16.2223084,10.1213808 15.5287644,13.3989014 C14.5378372,19.0171329 20.6305158,18.8610855 23.0080055,16.4158177 L22.7116731,17.7687538 L27.2191834,17.7687538 L29.1511236,8.82098592 C29.9439705,5.02330735 26.4762507,4.08807383 23.3558283,4.13956422" id="Fill-7" fill="#FFFFFF"></path>
                <g id="Group-11" transform="translate(29.423077, 4.020611)">
                    <mask id="mask-2" fill="white">
                        <use xlink:href="#path-1"></use>
                    </mask>
                    <g id="Clip-10"></g>
                    <polygon id="Fill-9" fill="#FFFFFF" mask="url(#mask-2)" points="1.69219471 0.364846154 6.19970501 0.364846154 6.92634993 8.33534753 11.3371844 0.364846154 15.989183 0.364846154 5.27865762 19.4404574 0.237854052 19.4404574 3.53323867 13.8322088"></polygon>
                </g>
                <path d="M11.992636,6.48016999 C11.690524,7.78109032 10.4305859,8.82140625 9.17064766,8.82140625 L6.85305495,8.82140625 L7.91123489,4.13945913 L10.3297067,4.13945913 C11.5392054,4.13945913 12.3451875,5.17977507 11.992636,6.48016999 M12.1439547,0.654400755 L3.72895467,0.654400755 L0.000105082416,17.7686487 L4.9384533,17.7686487 L6.14795192,12.0984014 L9.67451786,12.0984014 C13.0508159,12.0984014 15.8728043,10.0177696 16.6283468,6.48016999 C17.4847685,2.47495364 14.6128661,0.654400755 12.1439547,0.654400755" id="Fill-12" fill="#FFFFFF"></path>
                <g id="Group-16" transform="translate(81.438874, 0.342726)">
                    <mask id="mask-4" fill="white">
                        <use xlink:href="#path-3"></use>
                    </mask>
                    <g id="Clip-15"></g>
                </g>
            </g>
        </g>
    </g>
</svg>