<?xml version="1.0" encoding="utf-8"?>
<!-- Generator: Adobe Illustrator 19.0.0, SVG Export Plug-In . SVG Version: 6.00 Build 0)  -->
<svg version="1.1" id="Layer_1" xmlns="http://www.w3.org/2000/svg" xmlns:xlink="http://www.w3.org/1999/xlink" x="0px" y="0px"
	 viewBox="0 0 172.4 173.9" style="enable-background:new 0 0 172.4 173.9;" xml:space="preserve">
<style type="text/css">
	.st0{fill:#66CAD8;}
	.st1{fill:#59595C;}
	.st2{fill:#58595B;}
</style>
<path id="XMLID_131_" class="st0" d="M102.3,75.4h-5.9v-3.5c0-5.3-4.3-9.6-9.6-9.6s-9.6,4.3-9.6,9.6v3.5h-5.9c-1.1,0-2,0.9-2,2v33
	c0,1.1,0.9,2,2,2h21.2c1.1,0,2-0.9,2-2s-0.9-2-2-2H73.3v-29h3.9V83c0,1.1,0.9,2,2,2s2-0.9,2-2v-3.6h11.3V83c0,1.1,0.9,2,2,2
	s2-0.9,2-2v-3.6h3.9v13.3c0,1.1,0.9,2,2,2s2-0.9,2-2V77.4C104.3,76.3,103.4,75.4,102.3,75.4z M81.2,75.4v-3.5c0-3.1,2.5-5.6,5.6-5.6
	c3.1,0,5.6,2.5,5.6,5.6v3.5H81.2z"/>
<g id="XMLID_156_">
	<circle id="XMLID_1_" class="st1" cx="86.8" cy="131.6" r="2.9"/>
</g>
<path id="XMLID_143_" class="st2" d="M149.5,140.1l-4.8-8.3c-1-1.7-1.7-3.4-2.2-5.3l-1.4-4.9c-0.6-2.2-1.5-4.3-2.6-6.2l-3-5.1
	c0,0,0,0,0,0L127,95.7c0,0,0,0,0,0l-0.3-0.6c-0.2-0.3-0.4-0.5-0.6-0.6c-1.9-1.9-4.9-2.4-7.4-1l-0.5,0.3c-0.2,0.1-0.4,0.2-0.6,0.4
	V41.8c0-3.4-2.8-6.2-6.2-6.2h-49c-3.4,0-6.2,2.8-6.2,6.2v95.1c0,3.4,2.8,6.2,6.2,6.2h40.9c1.6,1.6,3.6,2.9,5.9,3.7l7.3,2.4l6.3,10.8
	c0.4,0.6,1,1,1.7,1c0.3,0,0.7-0.1,1-0.3c1-0.6,1.3-1.8,0.7-2.7l-6.6-11.4c-0.2-0.4-0.6-0.7-1.1-0.9l-8-2.7c-2.5-0.8-4.6-2.5-5.9-4.8
	l-7.2-12.4c-0.2-0.4,0.1-1.5,0.8-2.4l4.7,8.1c0.4,0.6,1,1,1.7,1c0.3,0,0.7-0.1,1-0.3c1-0.6,1.3-1.8,0.7-2.7L94.3,109L87,96.4
	c-0.3-0.5-0.4-1.1-0.2-1.6c0.1-0.5,0.5-1,1-1.3l0.5-0.3c0.5-0.3,1-0.4,1.6-0.2c0.5,0.1,1,0.5,1.3,1l15.2,26.2c0.4,0.6,1,1,1.7,1
	c0.3,0,0.7-0.1,1-0.3c1-0.6,1.3-1.8,0.7-2.7l-10.3-17.7c-0.3-0.5-0.4-1.1-0.2-1.6c0.1-0.5,0.5-1,1-1.3l0.5-0.3
	c0.5-0.3,1-0.4,1.6-0.2c0.5,0.1,1,0.5,1.3,1l3.4,5.9l7,12.1c0.4,0.6,1,1,1.7,1c0.3,0,0.7-0.1,1-0.3c1-0.6,1.3-1.8,0.7-2.7l-2-3.5
	c0,0,0,0,0,0l-5-8.6l-1.4-2.4c-0.6-1-0.2-2.3,0.8-2.9l0.5-0.3c1-0.6,2.3-0.2,2.9,0.8l2.9,4.9c0,0,0,0,0,0l6.9,11.9
	c0.4,0.6,1,1,1.7,1c0.3,0,0.7-0.1,1-0.3c1-0.6,1.3-1.8,0.7-2.7l-1.3-2.3c0,0,0,0,0,0l-5.6-9.6c-0.3-0.5-0.4-1.1-0.3-1.6
	c0.1-0.5,0.4-0.9,0.8-1.1l0.5-0.3c0.5-0.3,1-0.4,1.6-0.2c0.5,0.1,1,0.5,1.3,1l11.4,19.7c1,1.7,1.7,3.4,2.2,5.3l1.4,4.9
	c0.6,2.2,1.5,4.3,2.6,6.2l4.8,8.3c0.4,0.6,1,1,1.7,1c0.3,0,0.7-0.1,1-0.3C149.8,142.3,150.1,141.1,149.5,140.1z M62.3,39.7h49
	c1.2,0,2.2,1,2.2,2.2V50H60.1v-8.1C60.1,40.6,61.1,39.7,62.3,39.7z M100.3,139.1h-38c-1.2,0-2.2-1-2.2-2.2v-11.8h33
	c-0.1,0.9,0.1,1.8,0.6,2.6L100.3,139.1z M108.4,92.9l-0.5,0.3c-0.7,0.4-1.3,1-1.8,1.6c-1.9-1.9-4.9-2.3-7.3-0.9l-0.5,0.3
	c-0.6,0.4-1.2,0.8-1.6,1.4l-2.1-3.6c-0.8-1.4-2.1-2.4-3.7-2.8c-1.6-0.4-3.2-0.2-4.6,0.6L85.7,90c-1.4,0.8-2.4,2.1-2.8,3.7
	c-0.4,1.6-0.2,3.2,0.6,4.6l7.3,12.6l5.1,8.7c-0.4,0.4-0.9,0.9-1.2,1.5H60.1V54h53.4v38.4C111.9,91.8,110,91.9,108.4,92.9z"/>
<g id="XMLID_67_">
	<path id="XMLID_96_" class="st0" d="M84.1,173.9c-2.8,0-5.7-0.1-8.5-0.4c-46.1-4.7-79.8-46-75.1-92.1c2.1-20.8,11.8-40,27.4-54
		C43.3,13.5,63.2,5.9,83.9,5.8l0,4c-19.7,0-38.7,7.3-53.4,20.5C15.7,43.7,6.4,62,4.4,81.8C0,125.7,32.1,165.1,76,169.5
		c2.7,0.3,5.4,0.4,8.1,0.4c40.5,0,75.4-30.8,79.6-72c0.6-6.3,0.5-12.7-0.3-19l4-0.5c0.9,6.6,1,13.3,0.3,20
		C163.3,141.6,126.7,173.9,84.1,173.9z"/>
</g>
<g id="XMLID_66_">
	<path id="XMLID_92_" class="st2" d="M89.9,15.8c-4.3,0-7.9-3.5-7.9-7.9C82,3.5,85.6,0,89.9,0c4.3,0,7.9,3.5,7.9,7.9
		C97.8,12.2,94.3,15.8,89.9,15.8z M89.9,4C87.8,4,86,5.7,86,7.9c0,2.1,1.7,3.9,3.9,3.9c2.1,0,3.9-1.7,3.9-3.9
		C93.8,5.7,92.1,4,89.9,4z"/>
</g>
<g id="XMLID_65_">
	<path id="XMLID_89_" class="st2" d="M164.5,80.9c-4.3,0-7.9-3.5-7.9-7.9s3.5-7.9,7.9-7.9s7.9,3.5,7.9,7.9S168.9,80.9,164.5,80.9z
		 M164.5,69.1c-2.1,0-3.9,1.7-3.9,3.9s1.7,3.9,3.9,3.9s3.9-1.7,3.9-3.9S166.7,69.1,164.5,69.1z"/>
</g>
</svg>
