<?xml version="1.0" encoding="utf-8"?>
<!-- Generator: Adobe Illustrator 18.0.0, SVG Export Plug-In . SVG Version: 6.00 Build 0)  -->
<!DOCTYPE svg PUBLIC "-//W3C//DTD SVG 1.1//EN" "http://www.w3.org/Graphics/SVG/1.1/DTD/svg11.dtd">
<svg version="1.1" id="Layer_1" xmlns="http://www.w3.org/2000/svg" xmlns:xlink="http://www.w3.org/1999/xlink" x="0px" y="0px"
	 viewBox="0 0 566.9 566.9" enable-background="new 0 0 566.9 566.9" xml:space="preserve">
<path id="XMLID_131_" fill="#57496B" d="M336,245.8h-19.2v-11.4c0-17.3-14-31.3-31.3-31.3s-31.3,14-31.3,31.3v11.4h-19.2
	c-3.6,0-6.5,2.9-6.5,6.5v107.6c0,3.6,2.9,6.5,6.5,6.5H304c3.6,0,6.5-2.9,6.5-6.5c0-3.6-2.9-6.5-6.5-6.5h-62.6v-94.5h12.7v11.7
	c0,3.6,2.9,6.5,6.5,6.5s6.5-2.9,6.5-6.5v-11.7H304v11.7c0,3.6,2.9,6.5,6.5,6.5c3.6,0,6.5-2.9,6.5-6.5v-11.7h12.7v43.4
	c0,3.6,2.9,6.5,6.5,6.5c3.6,0,6.5-2.9,6.5-6.5v-49.9C342.5,248.7,339.5,245.8,336,245.8z M267.2,245.8v-11.4
	c0-10.1,8.2-18.3,18.3-18.3c10.1,0,18.3,8.2,18.3,18.3v11.4H267.2z"/>
<g id="XMLID_156_">
	<circle id="XMLID_1_" fill="#59595C" cx="285.4" cy="429" r="9.5"/>
</g>
<path id="XMLID_143_" fill="#5B5B5B" d="M489.8,456.7l-15.6-27.1c-3.3-5.5-5.5-11.1-7.2-17.3l-4.6-16c-2-7.2-4.9-14-8.5-20.2
	l-9.8-16.6l0,0L416.5,312l0,0l-1-2c-0.7-1-1.3-1.6-2-2c-6.2-6.2-16-7.8-24.1-3.3l-1.6,1c-0.7,0.3-1.3,0.7-2,1.3V136.3
	c0-11.1-9.1-20.2-20.2-20.2H205.9c-11.1,0-20.2,9.1-20.2,20.2v310c0,11.1,9.1,20.2,20.2,20.2h133.3c5.2,5.2,11.7,9.5,19.2,12.1
	l23.8,7.8l20.5,35.2c1.3,2,3.3,3.3,5.5,3.3c1,0,2.3-0.3,3.3-1c3.3-2,4.2-5.9,2.3-8.8l-21.5-37.2c-0.7-1.3-2-2.3-3.6-2.9l-26.1-8.8
	c-8.2-2.6-15-8.2-19.2-15.6L320,410.1c-0.7-1.3,0.3-4.9,2.6-7.8l15.3,26.4c1.3,2,3.3,3.3,5.5,3.3c1,0,2.3-0.3,3.3-1
	c3.3-2,4.2-5.9,2.3-8.8l-39.1-66.8l-23.8-41.1c-1-1.6-1.3-3.6-0.7-5.2c0.3-1.6,1.6-3.3,3.3-4.2l1.6-1c1.6-1,3.3-1.3,5.2-0.7
	c1.6,0.3,3.3,1.6,4.2,3.3l49.6,85.4c1.3,2,3.3,3.3,5.5,3.3c1,0,2.3-0.3,3.3-1c3.3-2,4.2-5.9,2.3-8.8l-33.6-57.7
	c-1-1.6-1.3-3.6-0.7-5.2c0.3-1.6,1.6-3.3,3.3-4.2l1.6-1c1.6-1,3.3-1.3,5.2-0.7c1.6,0.3,3.3,1.6,4.2,3.3l11.1,19.2l22.8,39.4
	c1.3,2,3.3,3.3,5.5,3.3c1,0,2.3-0.3,3.3-1c3.3-2,4.2-5.9,2.3-8.8l-6.5-11.4l0,0l-16.3-28l-4.6-7.8c-2-3.3-0.7-7.5,2.6-9.5l1.6-1
	c3.3-2,7.5-0.7,9.5,2.6l9.5,16l0,0l22.5,38.8c1.3,2,3.3,3.3,5.5,3.3c1,0,2.3-0.3,3.3-1c3.3-2,4.2-5.9,2.3-8.8l-4.2-7.5l0,0
	l-18.3-31.3c-1-1.6-1.3-3.6-1-5.2c0.3-1.6,1.3-2.9,2.6-3.6l1.6-1c1.6-1,3.3-1.3,5.2-0.7c1.6,0.3,3.3,1.6,4.2,3.3l37.2,64.2
	c3.3,5.5,5.5,11.1,7.2,17.3l4.6,16c2,7.2,4.9,14,8.5,20.2l15.6,27.1c1.3,2,3.3,3.3,5.5,3.3c1,0,2.3-0.3,3.3-1
	C490.8,463.9,491.8,460,489.8,456.7z M205.5,129.4h159.7c3.9,0,7.2,3.3,7.2,7.2V163H198.4v-26.4
	C198.4,132.4,201.6,129.4,205.5,129.4z M329.4,453.5H205.5c-3.9,0-7.2-3.3-7.2-7.2v-38.5H306c-0.3,2.9,0.3,5.9,2,8.5L329.4,453.5z
	 M355.8,302.9l-1.6,1c-2.3,1.3-4.2,3.3-5.9,5.2c-6.2-6.2-16-7.5-23.8-2.9l-1.6,1c-2,1.3-3.9,2.6-5.2,4.6l-6.8-11.7
	c-2.6-4.6-6.8-7.8-12.1-9.1c-5.2-1.3-10.4-0.7-15,2l-2,0.7c-4.6,2.6-7.8,6.8-9.1,12.1c-1.3,5.2-0.7,10.4,2,15l23.8,41.1l16.6,28.4
	c-1.3,1.3-2.9,2.9-3.9,4.9H198.4V176h174.1v125.2C367.2,299.3,361.1,299.6,355.8,302.9z"/>
<g id="XMLID_67_">
	<path id="XMLID_96_" fill="#57496B" d="M276.6,566.9c-9.1,0-18.6-0.3-27.7-1.3C98.6,550.3-11.2,415.7,4.1,265.4
		c6.8-67.8,38.5-130.4,89.3-176C143.6,44,208.5,19.2,276,18.9v13c-64.2,0-126.2,23.8-174.1,66.8c-48.2,43.7-78.6,103.3-85.1,167.9
		C2.4,409.8,107.1,538.2,250.2,552.6c8.8,1,17.6,1.3,26.4,1.3c132,0,245.8-100.4,259.5-234.7c2-20.5,1.6-41.4-1-61.9l13-1.6
		c2.9,21.5,3.3,43.4,1,65.2C534.8,461.6,415.5,566.9,276.6,566.9z"/>
</g>
<g id="XMLID_66_">
	<path id="XMLID_92_" fill="#57496B" d="M295.5,51.5c-14,0-25.8-11.4-25.8-25.8S281.5,0,295.5,0s25.8,11.4,25.8,25.8
		C321.3,39.8,309.9,51.5,295.5,51.5z M295.5,13c-6.8,0-12.7,5.5-12.7,12.7c0,6.8,5.5,12.7,12.7,12.7c6.8,0,12.7-5.5,12.7-12.7
		S302.7,13,295.5,13z"/>
</g>
<g id="XMLID_65_">
	<path id="XMLID_89_" fill="#57496B" d="M538.7,263.7c-14,0-25.8-11.4-25.8-25.8c0-14.3,11.4-25.8,25.8-25.8
		c14.3,0,25.8,11.4,25.8,25.8C564.5,252.3,553.1,263.7,538.7,263.7z M538.7,225.3c-6.8,0-12.7,5.5-12.7,12.7
		c0,7.2,5.5,12.7,12.7,12.7c7.2,0,12.7-5.5,12.7-12.7C551.4,230.8,545.9,225.3,538.7,225.3z"/>
</g>
</svg>
