<?xml version="1.0" encoding="utf-8"?>
<!-- Generator: Adobe Illustrator 19.0.0, SVG Export Plug-In . SVG Version: 6.00 Build 0)  -->
<svg version="1.1" id="Layer_1" xmlns="http://www.w3.org/2000/svg" xmlns:xlink="http://www.w3.org/1999/xlink" x="0px" y="0px"
	 viewBox="0 0 172.4 173.9" style="enable-background:new 0 0 172.4 173.9;" xml:space="preserve">
<style type="text/css">
	.st0{fill:#67CAD7;}
	.st1{fill:#66CAD8;}
	.st2{fill:#58595B;}
</style>
<g id="XMLID_18_">
	<path id="XMLID_17_" class="st0" d="M119.4,91.4l-8.9-12c-0.4-0.5-1-0.8-1.6-0.8c0,0,0,0,0,0c-0.6,0-1.2,0.3-1.6,0.8L94.7,96.7
		l-3.3-4.5c-0.4-0.5-1-0.8-1.6-0.8s-1.2,0.3-1.6,0.8l-16.5,22.6c-0.7,0.9-0.5,2.1,0.4,2.8c0.9,0.7,2.1,0.5,2.8-0.4l14.9-20.4
		l14.9,20.4c0.4,0.5,1,0.8,1.6,0.8c0.4,0,0.8-0.1,1.2-0.4c0.9-0.7,1.1-1.9,0.4-2.8l-10.7-14.7l11.8-16.2l7.3,9.9
		c0.7,0.9,1.9,1.1,2.8,0.4C119.9,93.5,120.1,92.3,119.4,91.4z"/>
	<g id="XMLID_511_">
		<path id="XMLID_103_" class="st1" d="M84.2,173.9c-2.9,0-5.7-0.1-8.6-0.4c-46.1-4.7-79.8-46-75.1-92.1c2.1-20.8,11.8-40,27.4-54
			C43.3,13.5,63.2,5.9,83.9,5.8l0,4c-19.7,0-38.7,7.3-53.4,20.5C15.7,43.7,6.4,62,4.4,81.8C0,125.7,32.1,165.1,76,169.5
			c21.3,2.2,42.1-4.1,58.7-17.6c16.6-13.5,26.9-32.7,29-53.9c0.6-6.3,0.5-12.7-0.3-19l4-0.5c0.9,6.6,1,13.3,0.3,20
			c-2.3,22.3-13.1,42.4-30.5,56.6C122,167.3,103.5,173.9,84.2,173.9z"/>
	</g>
	<g id="XMLID_512_">
		<path id="XMLID_100_" class="st2" d="M89.9,15.8c-4.3,0-7.9-3.5-7.9-7.9C82,3.5,85.6,0,89.9,0s7.9,3.5,7.9,7.9
			C97.8,12.2,94.3,15.8,89.9,15.8z M89.9,4C87.8,4,86,5.7,86,7.9c0,2.1,1.7,3.9,3.9,3.9c2.1,0,3.9-1.7,3.9-3.9
			C93.8,5.7,92.1,4,89.9,4z"/>
	</g>
	<g id="XMLID_513_">
		<path id="XMLID_97_" class="st2" d="M164.5,80.9c-4.3,0-7.9-3.5-7.9-7.9s3.5-7.9,7.9-7.9c4.3,0,7.9,3.5,7.9,7.9
			S168.9,80.9,164.5,80.9z M164.5,69.1c-2.1,0-3.9,1.7-3.9,3.9s1.7,3.9,3.9,3.9c2.1,0,3.9-1.7,3.9-3.9S166.7,69.1,164.5,69.1z"/>
	</g>
	<g id="XMLID_126_">
		<path id="XMLID_132_" class="st2" d="M130.2,58h-17.8c-0.1-0.2-0.2-0.4-0.4-0.6L88.5,33.9c-0.8-0.8-2-0.8-2.8,0L62.1,57.4
			c-0.2,0.2-0.3,0.4-0.4,0.6H43.6c-1.1,0-2,0.9-2,2v66.8c0,1.1,0.9,2,2,2h86.6c1.1,0,2-0.9,2-2V60C132.2,58.9,131.3,58,130.2,58z
			 M87.1,38.1L107,58H67.2L87.1,38.1z M128.2,124.8H45.6V62h82.6V124.8z"/>
		<path id="XMLID_136_" class="st2" d="M54.6,118h64.7c1.1,0,2-0.9,2-2V70.8c0-1.1-0.9-2-2-2H54.6c-1.1,0-2,0.9-2,2V116
			C52.6,117.1,53.5,118,54.6,118z M56.6,72.8h60.7V114H56.6V72.8z"/>
	</g>
	<g id="XMLID_82_">
		<path id="XMLID_1_" class="st0" d="M71.6,96c-4.7,0-8.5-3.8-8.5-8.5s3.8-8.5,8.5-8.5s8.5,3.8,8.5,8.5S76.3,96,71.6,96z M71.6,83
			c-2.5,0-4.5,2-4.5,4.5s2,4.5,4.5,4.5s4.5-2,4.5-4.5S74.1,83,71.6,83z"/>
	</g>
</g>
</svg>
