<?xml version="1.0" encoding="UTF-8" standalone="no"?>
<svg width="50px" height="50px" viewBox="0 0 50 50" version="1.1" xmlns="http://www.w3.org/2000/svg" xmlns:xlink="http://www.w3.org/1999/xlink">
    <!-- Generator: Sketch 3.8.3 (29802) - http://www.bohemiancoding.com/sketch -->
    <title>Page 1</title>
    <desc>Created with Sketch.</desc>
    <defs>
        <polygon id="path-1" points="49.9329225 49.8238732 49.9329225 0.00616197183 0.000228873239 0.00616197183 0.000228873239 49.8238732"></polygon>
    </defs>
    <g id="Page-1" stroke="none" stroke-width="1" fill="none" fill-rule="evenodd">
        <g id="New-Landing" transform="translate(-1034.000000, -2343.000000)">
            <g id="Page-1" transform="translate(1034.000000, 2343.000000)">
                <g id="Group-3" transform="translate(0.000000, 0.169894)">
                    <mask id="mask-2" fill="white">
                        <use xlink:href="#path-1"></use>
                    </mask>
                    <g id="Clip-2"></g>
                    <path d="M49.6384331,0.0060915493 L0.000228873239,0.0060915493 L0.000228873239,49.8238732 L49.6384331,49.8238732 L49.6384331,33.3830282 C49.8356162,33.0978169 49.9329754,32.7330282 49.9329754,32.2874296 C49.9329754,31.7770423 49.8356162,31.4611972 49.6384331,31.195" id="Fill-1" fill="#FFFFFF" mask="url(#mask-2)"></path>
                </g>
                <path d="M0.000176056338,25.3982042 L2.38397887,25.3982042 L2.92147887,24.1017254 L4.12482394,24.1017254 L4.66091549,25.3982042 L9.35123239,25.3982042 L9.35123239,24.407007 L9.76989437,25.4022535 L12.2047535,25.4022535 L12.6234155,24.3922183 L12.6234155,25.3982042 L24.2797535,25.3982042 L24.2742958,23.2700352 L24.4998239,23.2700352 C24.6577465,23.275493 24.7038732,23.2901056 24.7038732,23.5508451 L24.7038732,25.3982042 L30.7327465,25.3982042 L30.7327465,24.9027817 C31.218838,25.1633451 31.9751761,25.3982042 32.9704225,25.3982042 L35.5066901,25.3982042 L36.0494718,24.1017254 L37.2528169,24.1017254 L37.7836268,25.3982042 L42.6711268,25.3982042 L42.6711268,24.1665141 L43.4112676,25.3982042 L47.3278169,25.3982042 L47.3278169,17.2573592 L43.4517606,17.2573592 L43.4517606,18.2188028 L42.9089789,17.2573592 L38.9316901,17.2573592 L38.9316901,18.2188028 L38.4332746,17.2573592 L33.0609155,17.2573592 C32.1616197,17.2573592 31.3711268,17.3828873 30.7327465,17.7327113 L30.7327465,17.2573592 L27.0251761,17.2573592 L27.0251761,17.7327113 C26.618838,17.3721479 26.0651408,17.2573592 25.4494718,17.2573592 L11.9049296,17.2573592 L10.9961268,19.36 L10.0628521,17.2573592 L5.79665493,17.2573592 L5.79665493,18.2188028 L5.32799296,17.2573592 L1.68961268,17.2573592 L0,21.1279577 L0,25.3982042 L0.000176056338,25.3982042 Z M46.0841549,24.2517254 L44.1070423,24.2517254 L41.4625,19.8707394 L41.4625,24.2517254 L38.6211268,24.2517254 L38.078169,22.9497887 L35.1799296,22.9497887 L34.653169,24.2517254 L33.0205986,24.2517254 C32.3424296,24.2517254 31.4838028,24.1017254 30.9975352,23.6061268 C30.5072183,23.1103521 30.2521127,22.4392254 30.2521127,21.3777817 C30.2521127,20.5121127 30.4045775,19.7207394 31.0042254,19.0953873 C31.4552817,18.6295423 32.1616197,18.4147535 33.1230634,18.4147535 L34.4739437,18.4147535 L34.4739437,19.6652817 L33.1514085,19.6652817 C32.6422535,19.6652817 32.3547535,19.741162 32.0778169,20.0112324 C31.8399648,20.257007 31.6767606,20.7216197 31.6767606,21.3334155 C31.6767606,21.9585915 31.8010563,22.4096479 32.0603873,22.7041901 C32.2751761,22.9351761 32.665493,23.0052465 33.0327465,23.0052465 L33.659331,23.0052465 L35.6257042,18.4149296 L37.7161972,18.4149296 L40.0783451,23.9358803 L40.0783451,18.4149296 L42.2026408,18.4149296 L44.6551056,22.4800704 L44.6551056,18.4149296 L46.0841549,18.4149296 L46.0841549,24.2517254 Z M28.1450704,24.2517254 L29.568662,24.2517254 L29.568662,18.4147535 L28.1450704,18.4147535 L28.1450704,24.2517254 Z M27.3359155,19.9867606 C27.3359155,20.9173944 26.7147887,21.3982042 26.3528169,21.5425704 C26.6580986,21.6587676 26.918838,21.8640493 27.0429577,22.0341197 C27.2399648,22.3244366 27.2739437,22.5837676 27.2739437,23.1050704 L27.2739437,24.2517254 L25.8667254,24.2517254 L25.8614437,23.5156338 C25.8614437,23.1644014 25.8950704,22.6592958 25.6411972,22.3784859 C25.4373239,22.1732042 25.1265845,22.128662 24.6242958,22.128662 L23.1265845,22.128662 L23.1265845,24.2517254 L21.7315141,24.2517254 L21.7315141,18.4147535 L24.940493,18.4147535 C25.6535211,18.4147535 26.1788732,18.4335915 26.6299296,18.6941549 C27.0713028,18.9550704 27.3359155,19.3355282 27.3359155,19.9867606 L27.3359155,19.9867606 Z M20.7644366,24.2517254 L16.1036972,24.2517254 L16.1036972,18.4147535 L20.7644366,18.4147535 L20.7644366,19.6302465 L17.4991197,19.6302465 L17.4991197,20.6821831 L20.6860915,20.6821831 L20.6860915,21.878838 L17.4991197,21.878838 L17.4991197,23.044331 L20.7644366,23.044331 L20.7644366,24.2517254 Z M15.0640845,24.2517254 L13.6336268,24.2517254 L13.6283451,19.6800704 L11.6052817,24.2517254 L10.3802817,24.2517254 L8.35193662,19.6761972 L8.35193662,24.2517254 L5.51426056,24.2517254 L4.97816901,22.9497887 L2.07323944,22.9497887 L1.53169014,24.2517254 L0.0163732394,24.2517254 L2.51478873,18.4147535 L4.58767606,18.4147535 L6.96056338,23.941162 L6.96056338,18.4147535 L9.23767606,18.4147535 L11.0635563,22.3744366 L12.7408451,18.4147535 L15.0637324,18.4147535 L15.0637324,24.2517254 L15.0640845,24.2517254 Z M37.6026408,21.7330634 L36.6371479,19.4061268 L35.6769366,21.7330634 L37.6026408,21.7330634 Z M25.5114437,20.8064789 C25.3197183,20.9228521 25.0929577,20.9267254 24.8213028,20.9267254 L23.1264085,20.9267254 L23.1264085,19.6302465 L24.8443662,19.6302465 C25.0875,19.6302465 25.3411972,19.641162 25.5059859,19.7355282 C25.6869718,19.8205634 25.7989437,20.0015493 25.7989437,20.2515493 C25.7989437,20.5066549 25.6924296,20.7119366 25.5114437,20.8064789 L25.5114437,20.8064789 Z M4.47447183,21.7330634 L3.51954225,19.4061268 L2.57007042,21.7330634 L4.47447183,21.7330634 Z" id="Fill-4" fill="#55A9B6"></path>
                <path d="M27.0430458,30.3845246 C27.0430458,32.0065317 25.8330106,32.3412148 24.6132923,32.3412148 L22.8726232,32.3412148 L22.8726232,34.2994894 L20.1606514,34.2994894 L18.4426937,32.366919 L16.6574824,34.2994894 L11.1308979,34.2994894 L11.1308979,28.4611092 L16.7423415,28.4611092 L18.4588908,30.3748415 L20.2335387,28.4611092 L24.6918134,28.4611092 C25.7990317,28.4611092 27.0430458,28.7676232 27.0430458,30.3845246 L27.0430458,30.3845246 Z M15.9511444,33.0827641 L12.5208627,33.0827641 L12.5208627,31.9213204 L15.5837148,31.9213204 L15.5837148,30.7301232 L12.5208627,30.7301232 L12.5208627,29.6686796 L16.01875,29.6686796 L17.5448063,31.370088 L15.9511444,33.0827641 Z M21.4830106,33.7685035 L19.3409331,31.3903345 L21.4830106,29.0878697 L21.4830106,33.7685035 Z M24.6756162,31.1554754 L22.8726232,31.1554754 L22.8726232,29.6688556 L24.6918134,29.6688556 C25.1955106,29.6688556 25.5449824,29.8741373 25.5449824,30.3845246 C25.5449824,30.8896303 25.2117077,31.1554754 24.6756162,31.1554754 L24.6756162,31.1554754 Z M34.0888204,28.4611092 L38.7453345,28.4611092 L38.7453345,29.6686796 L35.478081,29.6686796 L35.478081,30.7301232 L38.665581,30.7301232 L38.665581,31.9213204 L35.478081,31.9213204 L35.478081,33.0827641 L38.7453345,33.0882218 L38.7453345,34.2994894 L34.0888204,34.2994894 L34.0888204,28.4611092 Z M32.3263204,31.5862852 C32.6368838,31.7010739 32.890757,31.9065317 33.0097711,32.0764261 C33.2067782,32.3616373 33.2352993,32.6274824 33.240757,33.1422711 L33.240757,34.2994894 L31.8402289,34.2994894 L31.8402289,33.5690317 C31.8402289,33.2179754 31.8738556,32.6977289 31.6147007,32.4264261 C31.4108275,32.2170951 31.100088,32.1670951 30.5909331,32.1670951 L29.100088,32.1670951 L29.100088,34.2994894 L27.6981514,34.2994894 L27.6981514,28.4611092 L30.9192782,28.4611092 C31.6254401,28.4611092 32.1398768,28.4922711 32.5979754,28.7368134 C33.0382923,29.0026585 33.3152289,29.3670951 33.3152289,30.0331162 C33.3150528,30.9649824 32.6935739,31.4405106 32.3263204,31.5862852 L32.3263204,31.5862852 Z M31.4837148,30.8597007 C31.296919,30.9704401 31.0662852,30.9801232 30.7948063,30.9801232 L29.099912,30.9801232 L29.099912,29.6688556 L30.8178697,29.6688556 C31.0662852,29.6688556 31.3148768,29.6741373 31.4837148,29.7741373 C31.6645246,29.8686796 31.7724472,30.0496655 31.7724472,30.2993134 C31.7724472,30.5493134 31.6645246,30.7503697 31.4837148,30.8597007 L31.4837148,30.8597007 Z M44.0729754,31.2204401 C44.3446303,31.5014261 44.4904049,31.8563556 44.4904049,32.4572359 C44.4904049,33.7132218 43.7057218,34.2994894 42.2985035,34.2994894 L39.58125,34.2994894 L39.58125,33.0477289 L42.2877641,33.0477289 C42.5523768,33.0477289 42.7398768,33.0126937 42.8574824,32.9030106 C42.9534331,32.8128697 43.0224472,32.6815317 43.0224472,32.5223768 C43.0224472,32.3521303 42.9479754,32.2170951 42.8522007,32.1361092 C42.7453345,32.0470246 42.5983275,32.0065317 42.3553697,32.0065317 C41.0506162,31.9621655 39.4164613,32.0470246 39.4164613,30.1994894 C39.4164613,29.3526585 39.9486796,28.4612852 41.4111796,28.4612852 L44.2083627,28.4612852 L44.2083627,29.7040669 L41.6490317,29.7040669 C41.3953345,29.7040669 41.2303697,29.7135739 41.0898768,29.8093486 C40.9372359,29.9040669 40.8805458,30.0442077 40.8805458,30.229419 C40.8805458,30.4498415 41.0102993,30.5994894 41.1858275,30.6644542 C41.3330106,30.7156866 41.4909331,30.7304754 41.7287852,30.7304754 L42.4798415,30.7507218 C43.2370599,30.7693838 43.7571303,30.9003697 44.0729754,31.2204401 L44.0729754,31.2204401 Z M49.6384683,33.5528345 C49.2995599,34.0484331 48.6391725,34.2994894 47.7451585,34.2994894 L45.0506162,34.2994894 L45.0506162,33.0477289 L47.7340669,33.0477289 C48.0002641,33.0477289 48.1867077,33.0126937 48.2986796,32.9030106 C48.3958627,32.8128697 48.4638204,32.6815317 48.4638204,32.5223768 C48.4638204,32.3521303 48.3958627,32.2172711 48.2932218,32.1361092 C48.1921655,32.0470246 48.0448063,32.0065317 47.8016725,32.0065317 C46.4918134,31.9621655 44.8574824,32.0470246 44.8574824,30.1994894 C44.8574824,29.3526585 45.3949824,28.4612852 46.859243,28.4612852 L49.6382923,28.4612852 L49.6382923,27.2998415 L47.05625,27.2998415 C46.2770246,27.2998415 45.7108275,27.4864613 45.3101232,27.7766021 L45.3101232,27.2998415 L41.4909331,27.2998415 C40.8801937,27.2998415 40.1632923,27.4510739 39.8242077,27.7766021 L39.8242077,27.2998415 L33.0039613,27.2998415 L33.0039613,27.7766021 C32.4611796,27.3850528 31.5453345,27.2998415 31.1227993,27.2998415 L26.6242077,27.2998415 L26.6242077,27.7766021 C26.1948063,27.360581 25.2398768,27.2998415 24.6576585,27.2998415 L19.6231514,27.2998415 L18.4710387,28.5466725 L17.3919894,27.2998415 L9.87121479,27.2998415 L9.87121479,35.4461444 L17.2504401,35.4461444 L18.437412,34.1797711 L19.5558979,35.4461444 L24.1044894,35.4501937 L24.1044894,33.5339965 L24.5516725,33.5339965 C25.1550176,33.5431514 25.8668134,33.5188556 26.4949824,33.2475528 L26.4949824,35.4461444 L30.2465669,35.4461444 L30.2465669,33.3227289 L30.4277289,33.3227289 C30.6585387,33.3227289 30.6814261,33.332412 30.6814261,33.5632218 L30.6814261,35.4457923 L42.0784331,35.4457923 C42.8022007,35.4457923 43.5585387,35.260581 43.9773768,34.9244894 L43.9773768,35.4457923 L47.5925176,35.4457923 C48.3446303,35.4457923 49.0794894,35.3403345 49.6384683,35.0702641 L49.6384683,33.5528345 Z M49.6384683,29.7037148 L47.0955106,29.7037148 C46.8418134,29.7037148 46.6731514,29.7132218 46.5308979,29.8091725 C46.3837148,29.9037148 46.3270246,30.0438556 46.3270246,30.2290669 C46.3270246,30.4494894 46.4513204,30.5991373 46.6323063,30.6641021 C46.7794894,30.7153345 46.937588,30.7301232 47.1698063,30.7301232 L47.9259683,30.7503697 C48.6889965,30.7693838 49.1985035,30.9003697 49.5090669,31.2204401 C49.565581,31.2648063 49.5993838,31.3149824 49.6384683,31.3648063 L49.6384683,29.7037148 Z" id="Fill-6" fill="#55A9B6"></path>
            </g>
        </g>
    </g>
</svg>