<?xml version="1.0" encoding="UTF-8" standalone="no"?>
<svg width="60px" height="36px" viewBox="0 0 60 36" version="1.1" xmlns="http://www.w3.org/2000/svg" xmlns:xlink="http://www.w3.org/1999/xlink">
    <!-- Generator: Sketch 3.8.3 (29802) - http://www.bohemiancoding.com/sketch -->
    <title>MasterCard</title>
    <desc>Created with Sketch.</desc>
    <defs></defs>
    <g id="Page-1" stroke="none" stroke-width="1" fill="none" fill-rule="evenodd">
        <g id="New-Landing" transform="translate(-494.000000, -2351.000000)">
            <g id="MasterCard" transform="translate(494.000000, 2351.000000)">
                <path d="M59.8345763,17.6457627 C59.8345763,7.90711864 51.939322,0.0118644068 42.200678,0.0118644068 C37.9742373,0.0118644068 34.1294915,1.49084746 31.0922034,3.96983051 C33.4088136,6.20610169 35.1772881,9.00677966 36.1257627,12.1722034 L34.660678,12.1722034 C33.7427119,9.3579661 32.1298305,6.87491525 30.0332203,4.88237288 C27.9488136,6.86949153 26.3508475,9.36237288 25.4355932,12.1637288 L23.9698305,12.1637288 C24.9149153,9.01627119 26.6532203,6.21186441 28.9518644,3.98237288 C25.9223729,1.52847458 22.0952542,0.0118644068 17.8928814,0.0118644068 C8.15423729,0.0118644068 0.258983051,7.90711864 0.258983051,17.6457627 C0.258983051,27.3847458 8.15423729,35.279661 17.8928814,35.279661 C22.0952542,35.279661 25.9223729,33.7630508 28.9518644,31.3091525 C26.6532203,29.079661 24.9149153,26.2752542 23.9698305,23.1277966 L25.4355932,23.1277966 C26.3508475,25.9291525 27.9488136,28.4220339 30.0332203,30.4091525 C32.1298305,28.4166102 33.7427119,25.9335593 34.660678,23.119322 L36.1257627,23.119661 C35.1772881,26.2847458 33.4088136,29.0854237 31.0922034,31.3220339 C34.1294915,33.800678 37.9742373,35.279661 42.200678,35.279661 C51.939322,35.279661 59.8345763,27.3847458 59.8345763,17.6457627" id="Fill-2" fill="#FFFFFF"></path>
                <path d="M46.8742373,21.7769492 L48.0922034,15.2522034 L49.6315254,15.2522034 L49.7922034,15.8955932 C50.0677966,15.5735593 50.5966102,15.2522034 51.4925424,15.2522034 L51.0101695,16.9518644 C50.5735593,16.9518644 49.7464407,16.8376271 49.2179661,18.7898305 L48.6664407,21.7769492 L46.8742373,21.7769492" id="Fill-3" fill="#55A9B6"></path>
                <path d="M23.279661,13.5935593 L25.0538983,13.5935593 L24.6901695,15.3223729 L25.6450847,15.3223729 L25.3271186,16.7325424 L24.4172881,16.7325424 L23.9166102,19.3708475 C23.8254237,19.8715254 23.8711864,20.3264407 24.8949153,20.1674576 L24.7810169,21.4864407 C24.3942373,21.7366102 23.8711864,21.8050847 23.4616949,21.8050847 C23.0525424,21.8050847 21.7098305,21.5545763 22.0515254,19.780678 L23.279661,13.5935593" id="Fill-4" fill="#55A9B6"></path>
                <path d="M30.9677966,18.8708475 C31.1725424,17.8240678 31.6505085,15.2315254 28.5342373,15.2315254 C25.6681356,15.2315254 25.3040678,18.0749153 25.2359322,18.4840678 C25.1677966,18.8935593 25.1220339,21.7820339 28.1928814,21.7820339 C28.9437288,21.8050847 30.0352542,21.7142373 30.4677966,21.4864407 L30.740678,20.1444068 C30.4677966,20.2125424 29.4440678,20.3037288 28.7386441,20.3037288 C28.0335593,20.3037288 26.8966102,20.3494915 27.1010169,18.8708475 L30.9677966,18.8708475" id="Fill-5" fill="#55A9B6"></path>
                <path d="M21.5966102,16.7783051 L22.0057627,15.4586441 C21.1640678,15.140339 20.5047458,15.2088136 20.2542373,15.2088136 C20.0040678,15.2088136 17.8738983,15.1827119 17.5474576,16.7552542 C17.2972881,17.9610169 17.7389831,18.46 18.1616949,18.6430508 C18.8444068,18.9389831 19.2311864,19.2115254 19.5949153,19.3938983 C20.0450847,19.6186441 19.9627119,20.3715254 19.3674576,20.3715254 C19.0942373,20.3715254 17.9115254,20.5084746 17.0244068,20.2125424 L16.7745763,21.5545763 C17.5932203,21.7820339 18.2525424,21.7820339 18.8671186,21.7820339 C19.299322,21.7820339 21.4145763,21.8959322 21.7098305,19.939661 C21.8545763,18.9854237 21.4369492,18.5522034 21.0959322,18.3474576 C20.7549153,18.12 20.1861017,17.8016949 19.8220339,17.6423729 C19.4583051,17.4830508 19.1850847,16.8691525 19.8450847,16.6871186 C20.2542373,16.6413559 21.0959322,16.6413559 21.5966102,16.7783051" id="Fill-6" fill="#55A9B6"></path>
                <polyline id="Fill-7" fill="#55A9B6" points="10.0867797 21.7820339 11.5654237 13.9118644 8.65389831 13.9118644 6.49254237 18.6888136 6.15152542 13.9118644 3.30813559 13.9118644 1.78440678 21.7820339 3.55830508 21.7820339 4.65016949 16.0955932 5.12779661 21.7820339 6.81118644 21.7820339 9.29084746 16.2322034 8.24440678 21.7820339 10.0867797 21.7820339"></polyline>
                <path d="M12.0427119,15.4362712 L11.7698305,16.8461017 C12.2023729,16.8010169 13.3623729,16.619322 13.9762712,16.6413559 C14.5908475,16.6644068 15.2728814,16.5735593 15.0681356,17.5511864 C14.6132203,17.5969492 11.4288136,17.0966102 10.9284746,19.8257627 C10.7237288,21.1681356 11.8837288,21.8501695 12.7935593,21.8050847 C13.7033898,21.759322 13.9535593,21.6454237 14.2722034,21.4183051 L14.499661,21.7820339 L16.16,21.7820339 L16.8654237,18.2338983 C17.0474576,17.3471186 17.3427119,15.2088136 14.3630508,15.2088136 C13.8172881,15.2315254 13.2033898,15.2088136 12.0427119,15.4362712" id="Fill-8" fill="#55A9B6"></path>
                <path d="M40.7942373,15.7318644 C40.339322,15.4586441 40.0210169,15.4135593 39.4294915,15.4135593 C38.8383051,15.4135593 37.5189831,15.9786441 37.2684746,17.5742373 C36.9728814,19.4620339 38.2694915,20.3945763 40.0894915,19.780678 L40.6122034,21.3725424 C40.0210169,21.6454237 39.4294915,21.7820339 38.4515254,21.7820339 C36.6088136,21.7820339 34.6071186,20.1444068 35.5169492,16.8233898 C36.1877966,14.3762712 38.2925424,13.48 39.520339,13.5250847 C40.9762712,13.579322 41.499661,14.0708475 41.9545763,14.5715254 L40.7942373,15.7318644" id="Fill-9" fill="#55A9B6"></path>
                <path d="M55.9210169,16.0044068 C55.579322,15.7545763 55.3749153,15.2315254 54.5332203,15.2315254 C53.5552542,15.2315254 52.0311864,15.0494915 51.1667797,18.0061017 C50.5894915,19.9827119 51.7583051,21.7820339 53.0318644,21.7820339 C53.6233898,21.759322 54.2145763,21.5091525 54.5786441,21.259322 L54.8064407,21.7820339 L56.7169492,21.7820339 L58.2637288,13.5027119 L56.3983051,13.5027119 L55.9210169,16.0044068" id="Fill-10" fill="#55A9B6"></path>
                <path d="M42.0681356,15.4362712 L41.7949153,16.8461017 C42.2274576,16.8010169 43.3874576,16.619322 44.0016949,16.6413559 C44.6159322,16.6644068 45.2983051,16.5735593 45.0932203,17.5511864 C44.6383051,17.5969492 41.4538983,17.0966102 40.9538983,19.8257627 C40.7488136,21.1681356 41.9088136,21.8501695 42.8186441,21.8050847 C43.7284746,21.759322 43.9786441,21.6454237 44.2972881,21.4183051 L44.5250847,21.7820339 L46.1854237,21.7820339 L46.8905085,18.2338983 C47.0728814,17.3471186 47.3677966,15.2088136 44.3884746,15.2088136 C43.8423729,15.2315254 43.2284746,15.2088136 42.0681356,15.4362712" id="Fill-11" fill="#55A9B6"></path>
                <path d="M27.2149153,17.6881356 L29.4213559,17.6881356 C29.5352542,17.0511864 29.3301695,16.5050847 28.6254237,16.5050847 C27.919661,16.5050847 27.419661,16.8691525 27.2149153,17.6881356" id="Fill-12" fill="#FFFFFF"></path>
                <path d="M14.7728814,18.8708475 C14.4769492,18.8247458 13.8172881,18.6430508 13.2484746,19.0298305 C12.679661,19.4166102 12.520678,20.0986441 13.1122034,20.3264407 C13.6813559,20.5454237 14.5216949,20.1681356 14.6362712,19.5755932 L14.7728814,18.8708475" id="Fill-13" fill="#FFFFFF"></path>
                <path d="M55.2840678,18.6657627 C55.4661017,18.0749153 55.3667797,17.3362712 55.1701695,17.0742373 C54.6244068,16.3461017 53.3691525,16.9216949 52.9864407,18.3474576 C52.7366102,19.279661 53.2827119,19.9854237 53.8966102,19.9854237 C54.5562712,19.9854237 54.9654237,19.4620339 55.2840678,18.6657627" id="Fill-14" fill="#FFFFFF"></path>
                <path d="M44.7979661,18.8708475 C44.5023729,18.8247458 43.8423729,18.6430508 43.2735593,19.0298305 C42.7047458,19.4166102 42.5457627,20.0986441 43.1376271,20.3264407 C43.7067797,20.5454237 44.5467797,20.1681356 44.6613559,19.5755932 L44.7979661,18.8708475" id="Fill-15" fill="#FFFFFF"></path>
                <path d="M31.0189831,21.7820339 L32.2244068,15.3223729 L33.7488136,15.3223729 L33.9077966,15.959322 C34.180678,15.640678 34.7037288,15.3223729 35.5908475,15.3223729 L35.1359322,17.0284746 C34.7037288,17.0284746 33.8620339,16.8922034 33.3389831,18.8247458 L32.7932203,21.7820339 L31.0189831,21.7820339" id="Fill-16" fill="#55A9B6"></path>
            </g>
        </g>
    </g>
</svg>