<?xml version="1.0" encoding="UTF-8" standalone="no"?>
<svg width="40px" height="40px" viewBox="0 0 40 40" version="1.1" xmlns="http://www.w3.org/2000/svg" xmlns:xlink="http://www.w3.org/1999/xlink">
    <!-- Generator: Sketch 3.8.3 (29802) - http://www.bohemiancoding.com/sketch -->
    <title>Facebook__x28_alt_x29_</title>
    <desc>Created with Sketch.</desc>
    <defs></defs>
    <g id="Page-1" stroke="none" stroke-width="1" fill="none" fill-rule="evenodd">
        <g id="Mobile-landing" transform="translate(-134.000000, -11388.000000)" fill="#FFFFFF">
            <g id="Group-8-Copy-5" transform="translate(30.000000, 11278.000000)">
                <path d="M144,110 C144,110 139.127884,110 137.333333,110 L110.666667,110 L104,110 L104,116.667111 L104,143.332889 C104,145.105013 104,150 104,150 C104,150 108.935465,150 110.667111,150 L124,150 L124,134.888889 L119.111111,134.888889 L119.111111,128.222222 L124,128.222222 L124,125.624889 C124,121.145333 127.363556,117.111111 131.5,117.111111 L136.888889,117.111111 L136.888889,123.777778 L131.5,123.777778 C130.910222,123.777778 130.222222,124.493778 130.222222,125.566222 L130.222222,128.222222 L136.888889,128.222222 L136.888889,134.888889 L130.222222,134.888889 L130.222222,150 L137.333333,150 C139.201621,150 144,150 144,150 C144,150 144,144.968186 144,143.332889 L144,116.667111 C144,114.958095 144,110 144,110 Z" id="Facebook__x28_alt_x29_"></path>
            </g>
        </g>
    </g>
</svg>