<?xml version="1.0" encoding="UTF-8" standalone="no"?>
<svg width="49px" height="49px" viewBox="0 0 49 49" version="1.1" xmlns="http://www.w3.org/2000/svg" xmlns:xlink="http://www.w3.org/1999/xlink">
    <!-- Generator: Sketch 3.8.3 (29802) - http://www.bohemiancoding.com/sketch -->
    <title>Page 1</title>
    <desc>Created with Sketch.</desc>
    <defs>
        <polygon id="path-1" points="0 48.4117567 48.3964839 48.4117567 48.3964839 0.0152727566 0 0.0152727566"></polygon>
    </defs>
    <g id="Page-1" stroke="none" stroke-width="1" fill="none" fill-rule="evenodd">
        <g id="Mobile-landing" transform="translate(-538.000000, -12593.000000)">
            <g id="Group-12-Copy" transform="translate(52.000000, 12588.674847)">
                <g id="Page-1" transform="translate(486.318101, 4.401069)">
                    <g id="Group-3" transform="translate(0.000000, 0.080782)">
                        <mask id="mask-2" fill="white">
                            <use xlink:href="#path-1"></use>
                        </mask>
                        <g id="Clip-2"></g>
                        <path d="M24.198242,0.0152727566 C17.626346,0.0152727566 16.8022895,0.0431287277 14.2213858,0.160892247 C11.645669,0.278367601 9.8867085,0.687466156 8.34742596,1.28560109 C6.75617763,1.90400365 5.40669991,2.73142205 4.06144861,4.07667334 C2.71619732,5.42202069 1.88877892,6.77149841 1.27037636,8.36274675 C0.672145372,9.90193323 0.263142872,11.6609898 0.145571463,14.2366105 C0.0278079436,16.8176103 -4.80275339e-05,17.6416668 -4.80275339e-05,24.2135627 C-4.80275339e-05,30.7853627 0.0278079436,31.6094191 0.145571463,34.1904189 C0.263142872,36.7660397 0.672145372,38.5250962 1.27037636,40.0642827 C1.88877892,41.655531 2.71619732,43.0050087 4.06144861,44.3503561 C5.40669991,45.6956074 6.75617763,46.5230258 8.34742596,47.1414283 C9.8867085,47.7395633 11.645669,48.1486618 14.2213858,48.2661372 C16.8022895,48.3839007 17.626346,48.4117567 24.198242,48.4117567 C30.7701379,48.4117567 31.5941944,48.3839007 34.1750981,48.2661372 C36.7508149,48.1486618 38.5097754,47.7395633 40.049058,47.1414283 C41.6403063,46.5230258 42.989784,45.6956074 44.3350353,44.3503561 C45.6802866,43.0050087 46.507705,41.655531 47.1261076,40.0642827 C47.7243385,38.5250962 48.133341,36.7660397 48.2509125,34.1904189 C48.368676,31.6094191 48.3965319,30.7853627 48.3965319,24.2135627 C48.3965319,17.6416668 48.368676,16.8176103 48.2509125,14.2366105 C48.133341,11.6609898 47.7243385,9.90193323 47.1261076,8.36274675 C46.507705,6.77149841 45.6802866,5.42202069 44.3350353,4.07667334 C42.989784,2.73142205 41.6403063,1.90400365 40.049058,1.28560109 C38.5097754,0.687466156 36.7508149,0.278367601 34.1750981,0.160892247 C31.5941944,0.0431287277 30.7701379,0.0152727566 24.198242,0.0152727566 M24.198242,4.37530856 C30.6594825,4.37530856 31.4247532,4.39999472 33.9763602,4.51641347 C36.3356649,4.62399515 37.6170396,5.01820517 38.4697205,5.34959517 C39.599136,5.78856685 40.4052302,6.31293149 41.2520517,7.15975301 C42.0987772,8.00647848 42.6232379,8.81257265 43.0622095,9.94208425 C43.3935035,10.7947651 43.7877135,12.0760437 43.8953912,14.4353484 C44.01181,16.9869554 44.0364001,17.7523222 44.0364001,24.2135627 C44.0364001,30.6747072 44.01181,31.440074 43.8953912,33.991681 C43.7877135,36.3509857 43.3935035,37.6322643 43.0622095,38.4849452 C42.6232379,39.6144568 42.0987772,40.420551 41.2520517,41.2672764 C40.4052302,42.1140979 39.599136,42.6384626 38.4697205,43.0774343 C37.6170396,43.4088243 36.3356649,43.8030343 33.9763602,43.910616 C31.4251375,44.0270347 30.6598667,44.0517209 24.198242,44.0517209 C17.7366172,44.0517209 16.9713464,44.0270347 14.4201237,43.910616 C12.060819,43.8030343 10.7794443,43.4088243 9.92676347,43.0774343 C8.79734792,42.6384626 7.99125375,42.1140979 7.14443223,41.2672764 C6.29770676,40.420551 5.77324607,39.6144568 5.33427438,38.4849452 C5.00298044,37.6322643 4.60877042,36.3509857 4.50109268,33.991681 C4.38467393,31.440074 4.36008384,30.6747072 4.36008384,24.2135627 C4.36008384,17.7523222 4.38467393,16.9869554 4.50109268,14.4353484 C4.60877042,12.0760437 5.00298044,10.7947651 5.33427438,9.94208425 C5.77324607,8.81257265 6.29770676,8.00647848 7.14443223,7.15975301 C7.99125375,6.31293149 8.79734792,5.78856685 9.92676347,5.34959517 C10.7794443,5.01820517 12.060819,4.62399515 14.4200277,4.51641347 C16.9717307,4.39999472 17.7370014,4.37530856 24.198242,4.37530856" id="Fill-1" fill="#FFFFFF" mask="url(#mask-2)"></path>
                    </g>
                    <path d="M24.198242,32.3603681 C19.7434958,32.3603681 16.1321133,28.7490816 16.1321133,24.2943355 C16.1321133,19.8394933 19.7434958,16.2282068 24.198242,16.2282068 C28.6529881,16.2282068 32.2642746,19.8394933 32.2642746,24.2943355 C32.2642746,28.7490816 28.6529881,32.3603681 24.198242,32.3603681 M24.198242,11.868171 C17.3354912,11.868171 11.7720775,17.4314887 11.7720775,24.2943355 C11.7720775,31.1570862 17.3354912,36.7204039 24.198242,36.7204039 C31.0609927,36.7204039 36.6244064,31.1570862 36.6244064,24.2943355 C36.6244064,17.4314887 31.0609927,11.868171 24.198242,11.868171" id="Fill-4" fill="#FFFFFF"></path>
                    <path d="M40.0191176,11.3772143 C40.0191176,12.9809498 38.7190122,14.2809591 37.1153727,14.2809591 C35.5116372,14.2809591 34.2115318,12.9809498 34.2115318,11.3772143 C34.2115318,9.77347878 35.5116372,8.47346943 37.1153727,8.47346943 C38.7190122,8.47346943 40.0191176,9.77347878 40.0191176,11.3772143" id="Fill-6" fill="#FFFFFF"></path>
                </g>
            </g>
        </g>
    </g>
</svg>