<?xml version="1.0" encoding="utf-8"?>
<!-- Generator: Adobe Illustrator 20.0.0, SVG Export Plug-In . SVG Version: 6.00 Build 0)  -->
<svg version="1.1" id="Layer_1" xmlns="http://www.w3.org/2000/svg" xmlns:xlink="http://www.w3.org/1999/xlink" x="0px" y="0px"
	 viewBox="0 0 246.2 246.2" style="enable-background:new 0 0 246.2 246.2;" xml:space="preserve">
<style type="text/css">
	.st0{fill:#66CAD8;}
	.st1{fill:#FFFFFF;}
	.st2{fill:#59595B;}
</style>
<path id="XMLID_13_" class="st0" d="M246.2,47v152.2c0,26-21.1,47-47,47H47c-26,0-47-21-47-47V47C0,21,21,0,47,0h152.2
	C225.2,0,246.2,21,246.2,47z"/>
<g id="XMLID_90_">
	<path id="XMLID_91_" class="st1" d="M123,195.5c-43.1,0-80.5-30.5-89.2-72.6l10-2.1c7.7,37.3,40.9,64.4,79,64.4s71.4-27.1,79-64.4
		l10,2.1C203.5,164.9,166,195.5,123,195.5z"/>
</g>
<g id="XMLID_63_">
	<path id="XMLID_74_" class="st2" d="M37.1,124.4c-10.8,0-19.7-8.8-19.7-19.7c0-10.8,8.8-19.7,19.7-19.7c10.8,0,19.7,8.8,19.7,19.7
		C56.8,115.6,48,124.4,37.1,124.4z M37.1,97.2c-4.1,0-7.6,3.3-7.6,7.6c0,4.1,3.3,7.6,7.6,7.6s7.6-3.3,7.6-7.6S41.3,97.2,37.1,97.2z"
		/>
</g>
<g id="XMLID_17_">
	<path id="XMLID_20_" class="st2" d="M208.9,124.4c-10.8,0-19.7-8.8-19.7-19.7c0-10.8,8.8-19.7,19.7-19.7c10.8,0,19.7,8.8,19.7,19.7
		C228.5,115.6,219.7,124.4,208.9,124.4z M208.9,97.2c-4.1,0-7.6,3.3-7.6,7.6c0,4.1,3.3,7.6,7.6,7.6c4.1,0,7.6-3.3,7.6-7.6
		S213,97.2,208.9,97.2z"/>
</g>
</svg>
