<?xml version="1.0" encoding="UTF-8" standalone="no"?>
<svg width="206px" height="56px" viewBox="0 0 206 56" version="1.1" xmlns="http://www.w3.org/2000/svg" xmlns:xlink="http://www.w3.org/1999/xlink">
    <!-- Generator: Sketch 3.8.3 (29802) - http://www.bohemiancoding.com/sketch -->
    <title>Page 1 Copy</title>
    <desc>Created with Sketch.</desc>
    <defs>
        <polygon id="path-1" points="37.492216 0.122952563 0.167980231 0.122952563 0.167980231 55.4423988 37.492216 55.4423988 37.492216 0.122952563"></polygon>
    </defs>
    <g id="Page-1" stroke="none" stroke-width="1" fill="none" fill-rule="evenodd">
        <g id="Mobile-landing" transform="translate(-50.000000, -11746.000000)">
            <g id="Page-1-Copy" transform="translate(50.000000, 11745.674847)">
                <g id="Group-3" transform="translate(138.774877, 0.206679)">
                    <mask id="mask-2" fill="white">
                        <use xlink:href="#path-1"></use>
                    </mask>
                    <g id="Clip-2"></g>
                    <path d="M7.20297647,36.6665309 C7.20297647,38.7287058 7.19473568,40.7954955 7.21550247,42.8580001 C7.21550247,43.1971909 7.26165088,43.6085711 7.45020012,43.8726059 C10.6156518,48.2998871 15.3402606,50.1197828 20.293304,49.1931886 C26.877694,47.968937 31.0050104,42.0869919 30.3569548,35.2827377 C29.8582223,30.063352 26.1940381,25.725401 21.1589164,24.3920414 C16.174558,23.0712079 10.4561101,25.1637089 7.56359337,29.3965074 C7.34109208,29.7198759 7.22374326,30.1764156 7.21978768,30.5752698 C7.18188005,32.6038223 7.20297647,34.6369896 7.20297647,36.6665309 M7.29098809,0.128852967 C7.26165088,0.38695446 7.20726168,0.644726321 7.20726168,0.900520393 C7.20297647,7.62731115 7.20726168,14.3494871 7.20726168,21.0696852 C7.20726168,21.264827 7.22802847,21.4596393 7.25341009,21.8304748 C11.8395737,18.4764739 16.8661249,17.2251926 22.3709716,18.2084834 C27.9651484,19.2082559 32.1221317,22.3084405 34.9853112,27.1566611 C39.278762,34.4359143 37.9140874,44.1709225 31.9879717,50.1570312 C26.1396489,56.0640283 15.5538618,57.6950451 7.25736567,51.5447799 L7.25736567,54.5589307 L0.235225064,54.5589307 C0.211491593,54.2906106 0.167980231,54.0097646 0.167980231,53.7292481 L0.167980231,0.803938353 C0.167980231,0.579459277 0.196987806,0.347069044 0.209184173,0.1229196 C2.5706645,0.128852967 4.93049666,0.128852967 7.29098809,0.128852967" id="Fill-1" fill="#FFFFFF" mask="url(#mask-2)"></path>
                </g>
                <g id="Group-6" transform="translate(0.000000, 1.195574)" fill="#FFFFFF">
                    <path d="M52.5374653,53.6245242 L46.8252804,53.6245242 C46.6429942,50.5352174 46.4603783,47.4577774 46.2678735,44.2000289 C45.5080728,45.2443016 44.8936396,46.1540847 44.211632,47.0173897 C40.852357,51.2346955 36.4283721,53.6621022 31.1364675,54.4044324 C24.5431775,55.3310266 18.2735857,54.2448907 12.5854639,50.6772886 C5.78582457,46.4095491 1.70201947,40.2678543 0.389097065,32.3276899 C-0.549034286,26.6418756 0.215051614,21.1752662 2.61905441,15.9575286 C5.49541919,9.7113406 10.1402572,5.1706662 16.4899494,2.59031054 C24.6153668,-0.702708508 32.7299063,-0.469988644 40.5316255,3.69490581 C46.5526751,6.90222066 50.3783787,11.9558017 52.1811336,18.5359065 C52.2154153,18.6595183 52.2216783,18.7917005 52.2562896,19.0181574 C49.7764716,19.0181574 47.3253315,19.0287056 44.8791358,18.9950832 C44.6849829,18.990798 44.4041368,18.6891851 44.318103,18.4706394 C41.678084,11.6752853 36.5071541,8.31073621 29.4546874,7.57928383 C20.8875638,6.69059721 12.6639162,10.9899813 9.19849986,19.0118944 C5.73736873,27.0146888 7.00645015,36.9181387 14.1564878,43.0641187 C17.4056658,45.8564274 21.235325,47.2982357 25.5202054,47.5794114 C29.8687046,47.867839 33.9231725,47.0424417 37.5164858,44.4854899 C41.4747013,41.6598883 43.6278545,37.6812357 44.692894,33.0360681 C44.7258572,32.8808116 44.69652,32.7130292 44.69652,32.4575647 L26.5196482,32.4575647 L26.5196482,25.7782409 L52.5374653,25.7782409 L52.5374653,53.6245242 Z" id="Fill-4"></path>
                </g>
                <path d="M120.126895,36.9736486 C120.126895,34.8771921 120.14074,32.7810651 120.11404,30.680653 C120.112062,30.3117953 120.048443,29.8714076 119.841764,29.5826503 C116.735646,25.1942657 111.692284,23.4900707 106.829889,24.4918209 C100.285714,25.841662 96.0242375,32.1603689 97.1172957,38.8222223 C97.9453301,43.8781108 100.716542,47.5884434 105.696945,49.0599185 C110.678337,50.5317233 115.192641,49.3199978 118.87957,45.5094573 C119.754082,44.6033002 120.265341,43.6312168 120.163814,42.2807164 C120.030313,40.5201543 120.126895,38.7424515 120.126895,36.9736486 M120.14074,22.0330993 L120.14074,19.0944341 L127.116403,19.0944341 L127.116403,54.794848 L120.161177,54.794848 L120.161177,51.7810269 C114.748298,55.6792494 108.959968,56.7403333 102.756302,54.9042857 C98.6220637,53.6843193 95.4134303,51.0848451 93.0341499,47.5043873 C88.1773588,40.1974451 89.0868122,30.2616913 95.1760956,23.6703791 C100.270221,18.1487213 110.758108,15.2792787 120.14074,22.0330993" id="Fill-7" fill="#FFFFFF"></path>
                <path d="M85.0307951,18.2137576 L85.0307951,24.7707881 C83.8886218,24.9385705 82.757656,25.0621823 81.6451496,25.2757836 C77.5718927,26.0639326 74.3771038,28.271475 71.8923413,31.5361457 C71.6470954,31.8545698 71.5933655,32.3829691 71.5933655,32.8147864 C71.5745765,39.7360598 71.5811691,46.6576628 71.5811691,53.5753102 L71.5811691,54.7949469 L64.6005621,54.7949469 L64.6005621,19.1024442 L71.5745765,19.1024442 L71.5745765,24.299415 C75.3132574,20.2261581 79.6713159,18.2074946 85.0307951,18.2137576" id="Fill-9" fill="#FFFFFF"></path>
                <path d="M185.46959,19.0669758 L192.405697,19.0669758 L192.405697,24.301195 C196.147674,20.2431011 200.511666,18.1868596 205.856971,18.2264154 L205.856971,24.6829083 C204.183761,25.020451 202.534285,25.2528412 200.947768,25.6952067 C197.507404,26.6508086 194.841674,28.7680319 192.714232,31.5699 C192.491401,31.8672276 192.441297,32.3616749 192.435034,32.7601995 C192.422838,39.7154249 192.426464,46.6703206 192.426464,53.6212608 L192.426464,54.8201307 L185.46959,54.8201307 L185.46959,19.0669758 Z" id="Fill-11" fill="#FFFFFF"></path>
            </g>
        </g>
    </g>
</svg>