<?xml version="1.0" encoding="utf-8"?>
<!-- Generator: Adobe Illustrator 20.0.0, SVG Export Plug-In . SVG Version: 6.00 Build 0)  -->
<svg version="1.1" id="Layer_1" xmlns="http://www.w3.org/2000/svg" xmlns:xlink="http://www.w3.org/1999/xlink" x="0px" y="0px"
	 viewBox="0 0 703.5 189.9" style="enable-background:new 0 0 703.5 189.9;" xml:space="preserve">
<style type="text/css">
	.st0{fill:#59595B;}
</style>
<g id="XMLID_134_">
	<path id="XMLID_143_" class="st0" d="M90.6,117.1c20.8,0,43.2,0,63.9,0c-2,13.1-12.8,28.2-26.3,37.8c-12.3,8.8-26.1,11.6-41,10.6
		c-14.6-1-27.7-5.9-38.8-15.4c-24.4-21-28.8-54.8-16.9-82.2c11.8-27.4,39.9-42.1,69.2-39.1c23.3,2.4,40.6,13.2,49.9,34.9h27.1
		c-1.2-4.1-2.7-8.1-4.5-11.8c-7.2-15.6-18.7-27.9-34.6-36.4c-26.7-14.2-54.4-15-82.2-3.8C34.7,20.6,18.8,36.1,9,57.5
		C0.7,75.3-1.9,94,1.3,113.4c4.5,27.1,18.4,48.1,41.7,62.7c19.4,12.2,40.9,15.9,63.4,12.7c18.1-2.5,33.2-10.8,44.7-25.2
		c2.3-2.9,4.4-6.1,7-9.6c0,11.1,0,21.7,0,32.2c6.7,0,14.9,0,21.4,0c0-31.9,0-60.3,0-91.9c-29.8,0-59.3,0-88.9,0
		C90.6,101.9,90.6,109.4,90.6,117.1z"/>
	<path id="XMLID_142_" class="st0" d="M244.6,81.9c0-6.6,0-12.2,0-17.8c-8.3,0-16.1,0-23.8,0c0,40.8,0,81.3,0,122c8,0,15.8,0,23.9,0
		c0-1.5-0.1-51.4,0-75.1c0-1.5,0.2-3.3,1-4.4c8.5-11.2,19.4-18.7,33.3-21.4c3.8-0.7,7.7-1.2,11.6-1.7c0-7.4,0-14.7,0-22.4
		C272.3,61.1,257.4,68,244.6,81.9z"/>
	<path id="XMLID_141_" class="st0" d="M657.5,81.9c0-6.6,0-12.2,0-17.9c-8,0-15.7,0-23.7,0c0,40.9,0,81.5,0,122.2c8,0,15.7,0,23.8,0
		c0-1.4-0.1-51.6,0-75.4c0-1.4,0.2-3,1-4.1c7.3-9.6,16.4-16.8,28.1-20.1c5.4-1.5,11.1-2.3,16.8-3.5c0-7.1,0-14.4,0-22.1
		C685.2,61,670.3,68,657.5,81.9z"/>
	<path id="XMLID_138_" class="st0" d="M550.7,61.8c-18.8-3.4-36,0.9-51.7,12.4c-0.1-1.3,0-74.2,0-74.2h-24.2c0,0,0,184.8,0,186
		c8,0,16,0,24.2,0c0-3.5,0-6.8,0-10.3c28.4,21,64.5,15.4,84.5-4.7c20.3-20.5,24.9-53.7,10.2-78.6C584,75.8,569.8,65.2,550.7,61.8z
		 M536.8,167.7c-23.7,0-42.9-19.2-42.9-42.9c0-23.7,19.2-42.9,42.9-42.9c23.7,0,42.9,19.2,42.9,42.9
		C579.7,148.5,560.5,167.7,536.8,167.7z"/>
	<path id="XMLID_135_" class="st0" d="M410.5,73.8c-32.1-23.1-67.9-13.3-85.3,5.6c-20.8,22.5-23.9,56.5-7.3,81.5
		c8.1,12.2,19.1,21.1,33.2,25.3c21.2,6.3,41,2.6,59.5-10.7c0,3.9,0,7.1,0,10.3c8.2,0,15.9,0,23.8,0c0-40.8,0-81.4,0-122
		c-8,0-15.8,0-23.8,0C410.5,67.1,410.5,70.2,410.5,73.8z M371.9,167.7c-23.7,0-42.9-19.2-42.9-42.9c0-23.7,19.2-42.9,42.9-42.9
		c23.7,0,42.9,19.2,42.9,42.9C414.8,148.5,395.6,167.7,371.9,167.7z"/>
</g>
</svg>
