<?xml version="1.0" encoding="UTF-8" standalone="no"?>
<svg width="53px" height="53px" viewBox="0 0 53 53" version="1.1" xmlns="http://www.w3.org/2000/svg" xmlns:xlink="http://www.w3.org/1999/xlink">
    <!-- Generator: Sketch 3.8.3 (29802) - http://www.bohemiancoding.com/sketch -->
    <title>Page 1</title>
    <desc>Created with Sketch.</desc>
    <defs>
        <polygon id="path-1" points="57.2138943 28.6070266 57.2138943 57.2138943 0 57.2138943 0 28.6070266 0 0.000158927483 57.2138943 0.000158927483 57.2138943 28.6070266"></polygon>
    </defs>
    <g id="Page-1" stroke="none" stroke-width="1" fill="none" fill-rule="evenodd">
        <g id="Mobile-landing" transform="translate(-415.000000, -12591.000000)">
            <g id="Group-12-Copy" transform="translate(52.000000, 12588.674847)">
                <g id="Page-1" transform="translate(360.887641, 0.000000)">
                    <g id="Group-3" transform="translate(0.000000, -0.000318)">
                        <mask id="mask-2" fill="white">
                            <use xlink:href="#path-1"></use>
                        </mask>
                        <g id="Clip-2"></g>
                    </g>
                    <path d="M28.5729366,2.68555663 C14.2567489,2.68555663 2.651864,14.2904415 2.651864,28.6066293 C2.651864,39.5885184 9.48415654,48.9684185 19.126287,52.7445355 C18.8990207,50.694371 18.6955935,47.5476068 19.2168757,45.3099078 C19.687301,43.286761 22.2555692,32.4240674 22.2555692,32.4240674 C22.2555692,32.4240674 21.480003,30.8713459 21.480003,28.576433 C21.480003,24.9719577 23.5698994,22.2813154 26.1715424,22.2813154 C28.3822237,22.2813154 29.4502164,23.9405183 29.4502164,25.9318797 C29.4502164,28.1568645 28.0341725,31.4816275 27.303106,34.5632314 C26.6928245,37.1426244 28.598365,39.2468243 31.1427941,39.2468243 C35.7501018,39.2468243 39.2910062,34.3884111 39.2910062,27.3765305 C39.2910062,21.1704123 34.831501,16.831692 28.4632767,16.831692 C21.0874521,16.831692 16.7582675,22.3623684 16.7582675,28.0805793 C16.7582675,30.3087426 17.6164759,32.6974227 18.6876471,33.9958603 C18.8990207,34.2517335 18.9308062,34.4774105 18.8672352,34.7396409 C18.6717544,35.5581174 18.2331145,37.3190339 18.1472937,37.6782101 C18.0344552,38.1534032 17.7722248,38.2535276 17.2811389,38.024672 C14.0437861,36.5180394 12.0190499,31.785179 12.0190499,27.9836335 C12.0190499,19.8068145 17.9597593,12.2974909 29.1466649,12.2974909 C38.1387819,12.2974909 45.1268234,18.705447 45.1268234,27.2684599 C45.1268234,36.2017737 39.4944333,43.3916531 31.6752011,43.3916531 C29.0497191,43.3916531 26.579986,42.026466 25.7344918,40.4149413 C25.7344918,40.4149413 24.434465,45.3639432 24.1197885,46.5765599 C23.5349354,48.8285623 21.9551962,51.6511145 20.8983284,53.3722991 C23.3235618,54.1224368 25.9013656,54.5277019 28.5729366,54.5277019 C42.8891244,54.5277019 54.4940093,42.922817 54.4940093,28.6066293 C54.4940093,14.2904415 42.8891244,2.68555663 28.5729366,2.68555663" id="Fill-4" fill="#FFFFFF"></path>
                </g>
            </g>
        </g>
    </g>
</svg>