<?xml version="1.0" encoding="utf-8"?>
<!-- Generator: Adobe Illustrator 19.0.0, SVG Export Plug-In . SVG Version: 6.00 Build 0)  -->
<svg version="1.1" id="Layer_1" xmlns="http://www.w3.org/2000/svg" xmlns:xlink="http://www.w3.org/1999/xlink" x="0px" y="0px"
	 viewBox="0 0 117.1 28.4" style="enable-background:new 0 0 117.1 28.4;" xml:space="preserve">
<style type="text/css">
	.st0{fill:#58595B;}
	.st1{fill:#66CAD8;}
</style>
<g id="XMLID_101_">
	<path id="XMLID_107_" class="st0" d="M37.8,15.7L37.8,15.7c-0.8,0-1.5-0.7-1.5-1.5s0.7-1.5,1.5-1.5s1.5,0.7,1.5,1.5
		S38.7,15.7,37.8,15.7z M30.7,15.7L30.7,15.7c-0.8,0-1.5-0.7-1.5-1.5s0.7-1.5,1.5-1.5s1.5,0.7,1.5,1.5S31.5,15.7,30.7,15.7z
		 M23.5,15.7L23.5,15.7c-0.8,0-1.5-0.7-1.5-1.5s0.7-1.5,1.5-1.5s1.5,0.7,1.5,1.5S24.3,15.7,23.5,15.7z M16.3,15.7L16.3,15.7
		c-0.8,0-1.5-0.7-1.5-1.5s0.7-1.5,1.5-1.5c0.8,0,1.5,0.7,1.5,1.5S17.2,15.7,16.3,15.7z M9.2,15.7L9.2,15.7c-0.8,0-1.5-0.7-1.5-1.5
		s0.7-1.5,1.5-1.5s1.5,0.7,1.5,1.5S10,15.7,9.2,15.7z M2,15.7L2,15.7c-0.8,0-1.5-0.7-1.5-1.5s0.7-1.5,1.5-1.5s1.5,0.7,1.5,1.5
		S2.8,15.7,2,15.7z"/>
</g>
<g id="XMLID_100_">
	<path id="XMLID_88_" class="st0" d="M115.6,15.7L115.6,15.7c-0.8,0-1.5-0.7-1.5-1.5s0.7-1.5,1.5-1.5s1.5,0.7,1.5,1.5
		S116.4,15.7,115.6,15.7z M108.4,15.7L108.4,15.7c-0.8,0-1.5-0.7-1.5-1.5s0.7-1.5,1.5-1.5s1.5,0.7,1.5,1.5S109.2,15.7,108.4,15.7z
		 M101.3,15.7L101.3,15.7c-0.8,0-1.5-0.7-1.5-1.5s0.7-1.5,1.5-1.5s1.5,0.7,1.5,1.5S102.1,15.7,101.3,15.7z M94.1,15.7L94.1,15.7
		c-0.8,0-1.5-0.7-1.5-1.5s0.7-1.5,1.5-1.5s1.5,0.7,1.5,1.5S94.9,15.7,94.1,15.7z M86.9,15.7L86.9,15.7c-0.8,0-1.5-0.7-1.5-1.5
		s0.7-1.5,1.5-1.5s1.5,0.7,1.5,1.5S87.7,15.7,86.9,15.7z M79.8,15.7L79.8,15.7c-0.8,0-1.5-0.7-1.5-1.5s0.7-1.5,1.5-1.5
		s1.5,0.7,1.5,1.5S80.6,15.7,79.8,15.7z"/>
</g>
<g id="XMLID_99_">
	<path id="XMLID_84_" class="st1" d="M57,28.4c-0.2,0-0.4,0-0.5,0c-0.6-0.1-1.2-0.4-1.7-0.9c-0.6-0.6-0.9-1.4-0.9-2.2l0-7.6l-2.8,0
		l-0.1,0l-1,2.6c-0.3,1-1.3,1.6-2.4,1.6c0,0,0,0,0,0c-0.7,0-1.3-0.2-1.8-0.7c-0.5-0.5-0.8-1.1-0.8-1.7l0-5.3l0,0l0-5.3
		c0-1.3,1.1-2.4,2.5-2.4c0,0,0,0,0,0c1.1,0,2.1,0.7,2.4,1.7l1,2.6l2.8,0l0-7.6c0-0.8,0.3-1.6,0.9-2.2c0.5-0.5,1.1-0.8,1.7-0.9
		c1.5-0.3,3,0.6,3.5,2.1l3,8.6l6.5,0c0.9,0,1.8,0.4,2.4,1c0.7,0.7,1,1.5,1,2.4s-0.4,1.8-1,2.4c-0.7,0.7-1.5,1-2.4,1c0,0,0,0,0,0
		l-6.5,0l-3,8.6C59.6,27.6,58.4,28.4,57,28.4z M51.2,15.9l3.6,0c0.2,0,0.5,0.1,0.6,0.3c0.2,0.2,0.3,0.4,0.3,0.6l0,8.5
		c0,0.4,0.1,0.7,0.4,1c0.2,0.2,0.5,0.3,0.7,0.4c0.7,0.1,1.3-0.3,1.5-0.9l3.2-9.2c0.1-0.4,0.5-0.6,0.8-0.6h0l7.1,0c0,0,0,0,0,0
		c0.4,0,0.9-0.2,1.2-0.5c0.3-0.3,0.5-0.7,0.5-1.2c0-0.4-0.2-0.9-0.5-1.2c-0.3-0.3-0.7-0.5-1.2-0.5l-7.1,0c-0.4,0-0.7-0.2-0.8-0.6
		l-3.2-9.2c-0.2-0.6-0.8-1-1.5-0.9c-0.3,0-0.5,0.2-0.7,0.4c-0.3,0.3-0.4,0.6-0.4,1l0,8.5c0,0.2-0.1,0.5-0.3,0.6s-0.4,0.3-0.6,0.3
		c0,0,0,0,0,0l-4.3,0c-0.4,0-0.7-0.2-0.8-0.6l-1.2-3.2c-0.1-0.3-0.4-0.5-0.8-0.5c0,0,0,0,0,0c-0.4,0-0.8,0.3-0.8,0.6l0,5.3l-0.9,0
		l0.9,0l0,5.3c0,0.2,0.1,0.3,0.2,0.4c0.1,0.1,0.4,0.2,0.6,0.2c0,0,0,0,0,0c0.3,0,0.7-0.2,0.7-0.4l1.3-3.2c0.1-0.4,0.5-0.6,0.9-0.6
		L51.2,15.9z"/>
</g>
</svg>
