<?xml version="1.0" encoding="UTF-8" standalone="no"?>
<svg width="219px" height="29px" viewBox="0 0 219 29" version="1.1" xmlns="http://www.w3.org/2000/svg" xmlns:xlink="http://www.w3.org/1999/xlink">
    <!-- Generator: Sketch 3.8.3 (29802) - http://www.bohemiancoding.com/sketch -->
    <title>Group 2 Copy 14</title>
    <desc>Created with Sketch.</desc>
    <defs></defs>
    <g id="Page-1" stroke="none" stroke-width="1" fill="none" fill-rule="evenodd">
        <g id="New-Landing" transform="translate(-264.000000, -3925.000000)" fill="#FEB310">
            <g id="Group-2-Copy-14" transform="translate(264.000000, 3925.000000)">
                <g id="noun_17639_cc">
                    <g id="Group">
                        <polygon id="Shape" points="14.8765845 22.8234135 5.7421352 28.2457365 8.07835987 17.8834688 0.0978353194 10.8724302 10.6740994 9.89082566 14.8765845 0.133895467 19.0781829 9.89082566 29.6553336 10.8724302 21.6751047 17.8834688 24.0110338 28.2457365"></polygon>
                    </g>
                </g>
                <g id="noun_17639_cc-copy-2" transform="translate(94.611278, 0.000000)">
                    <g id="Group">
                        <polygon id="Shape" points="14.8765845 22.8234135 5.7421352 28.2457365 8.07835987 17.8834688 0.0978353194 10.8724302 10.6740994 9.89082566 14.8765845 0.133895467 19.0781829 9.89082566 29.6553336 10.8724302 21.6751047 17.8834688 24.0110338 28.2457365"></polygon>
                    </g>
                </g>
                <g id="noun_17639_cc-copy" transform="translate(47.764917, 0.000000)">
                    <g id="Group">
                        <polygon id="Shape" points="14.8765845 22.8234135 5.7421352 28.2457365 8.07835987 17.8834688 0.0978353194 10.8724302 10.6740994 9.89082566 14.8765845 0.133895467 19.0781829 9.89082566 29.6553336 10.8724302 21.6751047 17.8834688 24.0110338 28.2457365"></polygon>
                    </g>
                </g>
                <g id="noun_17639_cc-copy-3" transform="translate(141.916918, 0.000000)">
                    <g id="Group">
                        <polygon id="Shape" points="14.8765845 22.8234135 5.7421352 28.2457365 8.07835987 17.8834688 0.0978353194 10.8724302 10.6740994 9.89082566 14.8765845 0.133895467 19.0781829 9.89082566 29.6553336 10.8724302 21.6751047 17.8834688 24.0110338 28.2457365"></polygon>
                    </g>
                </g>
                <g id="noun_17639_cc-copy-3" transform="translate(189.222557, 0.000000)">
                    <g id="Group">
                        <polygon id="Shape" points="14.8765845 22.8234135 5.7421352 28.2457365 8.07835987 17.8834688 0.0978353194 10.8724302 10.6740994 9.89082566 14.8765845 0.133895467 19.0781829 9.89082566 29.6553336 10.8724302 21.6751047 17.8834688 24.0110338 28.2457365"></polygon>
                    </g>
                </g>
            </g>
        </g>
    </g>
</svg>