<?xml version="1.0" encoding="UTF-8" standalone="no"?>
<svg width="49px" height="40px" viewBox="0 0 49 40" version="1.1" xmlns="http://www.w3.org/2000/svg" xmlns:xlink="http://www.w3.org/1999/xlink">
    <!-- Generator: Sketch 3.8.3 (29802) - http://www.bohemiancoding.com/sketch -->
    <title>Fill 1</title>
    <desc>Created with Sketch.</desc>
    <defs></defs>
    <g id="Page-1" stroke="none" stroke-width="1" fill="none" fill-rule="evenodd">
        <g id="Mobile-landing" transform="translate(-168.000000, -12597.000000)" fill="#FFFFFF">
            <g id="Group-12-Copy" transform="translate(52.000000, 12588.674847)">
                <path d="M165.04008,13.4595048 C163.258837,14.2494563 161.344785,14.783528 159.335464,15.0234706 C161.386222,13.794362 162.961167,11.8477274 163.702598,9.52851757 C161.783588,10.6667844 159.658103,11.4932143 157.395559,11.9387463 C155.583859,10.0084029 153.002571,8.80213758 150.145925,8.80213758 C144.660357,8.80213758 140.213361,13.2493114 140.213361,18.734171 C140.213361,19.5127894 140.301192,20.2706895 140.47048,20.9976008 C132.21592,20.5834119 124.897403,16.6292273 119.998676,10.6202125 C119.143737,12.0871389 118.653935,13.7932996 118.653935,15.6134994 C118.653935,19.0592889 120.407376,22.0993892 123.072422,23.8806316 C121.444353,23.8291015 119.912793,23.3821529 118.573718,22.6382421 C118.57301,22.6796787 118.572833,22.7212923 118.572833,22.7630831 C118.572833,27.5753948 121.996487,31.5897864 126.540169,32.5022769 C125.706656,32.7291157 124.829227,32.8504152 123.923466,32.8504152 C123.283324,32.8504152 122.661243,32.7882603 122.054746,32.6722732 C123.318739,36.6183122 126.986764,39.4898329 131.333002,39.570227 C127.933608,42.2340335 123.651118,43.821728 118.997646,43.821728 C118.196007,43.821728 117.405348,43.7748019 116.628323,43.6830748 C121.023967,46.5011175 126.244624,48.1453004 131.853616,48.1453004 C150.122728,48.1453004 160.112843,33.0110263 160.112843,19.8858958 C160.112843,19.4552386 160.103104,19.0268833 160.084156,18.6010072 C162.024593,17.2006627 163.708442,15.4512946 165.04008,13.4595048" id="Fill-1"></path>
            </g>
        </g>
    </g>
</svg>